<svg width="279" height="256" viewBox="0 0 279 256" fill="none" xmlns="http://www.w3.org/2000/svg">
<rect x="0.363281" y="0.363281" width="278.273" height="255.023" rx="5.44922" fill="white" stroke="#E7E7E7" stroke-width="0.726562"/>
<path d="M224.499 24.6647C224.499 24.5872 224.526 24.5252 224.581 24.4787C224.635 24.4244 224.701 24.3973 224.778 24.3973H225.58C225.658 24.3973 225.724 24.4244 225.778 24.4787C225.84 24.5252 225.871 24.5872 225.871 24.6647V25.5714C225.871 25.6412 225.84 25.7032 225.778 25.7574C225.716 25.8039 225.65 25.8272 225.58 25.8272H224.778C224.701 25.8272 224.635 25.8039 224.581 25.7574C224.526 25.7032 224.499 25.6412 224.499 25.5714V24.6647ZM226.65 24.6647C226.65 24.5872 226.677 24.5252 226.731 24.4787C226.793 24.4244 226.859 24.3973 226.929 24.3973H227.742C227.82 24.3973 227.882 24.4244 227.928 24.4787C227.983 24.5252 228.01 24.5872 228.01 24.6647V25.5714C228.01 25.6412 227.983 25.7032 227.928 25.7574C227.882 25.8039 227.82 25.8272 227.742 25.8272H226.929C226.859 25.8272 226.793 25.8039 226.731 25.7574C226.677 25.7032 226.65 25.6412 226.65 25.5714V24.6647ZM228.986 30.0354C229.172 30.0354 229.296 30.0199 229.358 29.9889C229.42 29.9502 229.451 29.8378 229.451 29.6518C229.451 29.2101 229.451 28.7567 229.451 28.2917C229.459 27.8189 229.459 27.3036 229.451 26.7456C229.451 26.6836 229.471 26.6332 229.509 26.5944C229.556 26.5479 229.61 26.5247 229.672 26.5247H230.637C230.722 26.5247 230.784 26.5479 230.823 26.5944C230.87 26.6332 230.893 26.6836 230.893 26.7456C230.893 26.9936 230.893 27.2106 230.893 27.3966C230.901 27.5826 230.904 27.7608 230.904 27.9313C230.912 28.0941 230.916 28.2607 230.916 28.4312C230.916 28.5939 230.916 28.7799 230.916 28.9892C230.916 29.4852 230.912 29.9037 230.904 30.2447C230.897 30.5779 230.881 30.8492 230.858 31.0584C230.842 31.1359 230.819 31.2018 230.788 31.2561C230.757 31.3103 230.695 31.3568 230.602 31.3956C230.517 31.4188 230.374 31.4382 230.172 31.4537C229.971 31.4692 229.742 31.4847 229.486 31.5002C229.238 31.5079 228.979 31.5157 228.707 31.5234C228.444 31.5234 228.204 31.5234 227.987 31.5234H225.429C224.654 31.5234 224.015 31.4498 223.511 31.3026C223.015 31.1553 222.62 30.9461 222.325 30.6748C222.038 30.3958 221.837 30.0587 221.721 29.6634C221.604 29.2682 221.546 28.8187 221.546 28.3149C221.546 27.9507 221.585 27.5399 221.663 27.0827C221.678 26.9974 221.701 26.9393 221.732 26.9083C221.763 26.8696 221.821 26.8502 221.907 26.8502H222.779C222.926 26.8502 222.992 26.9277 222.976 27.0827C222.953 27.4082 222.941 27.6794 222.941 27.8964C222.941 28.2452 222.976 28.5552 223.046 28.8264C223.116 29.0899 223.244 29.3108 223.43 29.4891C223.616 29.6673 223.875 29.8029 224.209 29.8959C224.549 29.9889 224.987 30.0354 225.522 30.0354H228.986ZM232.634 22.9093C232.634 22.8473 232.657 22.7931 232.704 22.7466C232.75 22.7001 232.808 22.6768 232.878 22.6768H233.913C233.99 22.6768 234.048 22.7001 234.087 22.7466C234.126 22.7931 234.145 22.8473 234.145 22.9093V29.4426C234.145 29.7061 234.199 29.8727 234.308 29.9424C234.416 30.0044 234.579 30.0354 234.796 30.0354H235.18V31.5234H234.366C234.102 31.5234 233.862 31.5041 233.645 31.4653C233.436 31.4188 233.254 31.3374 233.099 31.2212C232.952 31.0972 232.835 30.9306 232.75 30.7213C232.673 30.5043 232.634 30.2253 232.634 29.8843V22.9093ZM234.714 30.1749C234.714 30.1362 234.757 30.1052 234.842 30.0819C234.927 30.0509 235.013 30.0354 235.098 30.0354H235.633C235.702 30.0354 235.776 30.0316 235.854 30.0238C235.931 30.0161 236.001 30.0006 236.063 29.9773C236.133 29.9463 236.191 29.9076 236.237 29.8611C236.284 29.8068 236.307 29.7332 236.307 29.6402V26.7456C236.307 26.6836 236.326 26.6332 236.365 26.5944C236.412 26.5479 236.47 26.5247 236.539 26.5247H237.551C237.613 26.5247 237.663 26.5479 237.702 26.5944C237.748 26.6332 237.772 26.6836 237.772 26.7456V29.8378C237.795 29.8766 237.838 29.9114 237.9 29.9424C237.962 29.9657 238.031 29.9851 238.109 30.0006C238.186 30.0161 238.26 30.0277 238.33 30.0354C238.407 30.0354 238.473 30.0354 238.527 30.0354H238.806V31.5234H238.667C238.372 31.5234 238.074 31.5002 237.772 31.4537C237.469 31.3994 237.218 31.2909 237.016 31.1282C236.908 31.2057 236.787 31.2716 236.656 31.3258C236.524 31.3723 236.384 31.4111 236.237 31.4421C236.098 31.4731 235.954 31.4963 235.807 31.5118C235.668 31.5196 235.536 31.5234 235.412 31.5234H235.098C235.013 31.5234 234.927 31.5118 234.842 31.4886C234.757 31.4653 234.714 31.4304 234.714 31.3839V30.1749ZM235.121 32.8022C235.121 32.7247 235.148 32.6588 235.203 32.6046C235.257 32.5581 235.323 32.5348 235.4 32.5348H236.202C236.28 32.5348 236.346 32.5581 236.4 32.6046C236.462 32.6588 236.493 32.7247 236.493 32.8022V33.7322C236.493 33.7942 236.462 33.8484 236.4 33.8949C236.338 33.9492 236.272 33.9763 236.202 33.9763H235.4C235.323 33.9763 235.257 33.9492 235.203 33.8949C235.148 33.8484 235.121 33.7942 235.121 33.7322V32.8022ZM237.272 32.8022C237.272 32.7247 237.299 32.6588 237.353 32.6046C237.415 32.5581 237.481 32.5348 237.551 32.5348H238.365C238.442 32.5348 238.504 32.5581 238.551 32.6046C238.605 32.6588 238.632 32.7247 238.632 32.8022V33.7322C238.632 33.7942 238.605 33.8484 238.551 33.8949C238.504 33.9492 238.442 33.9763 238.365 33.9763H237.551C237.481 33.9763 237.415 33.9492 237.353 33.8949C237.299 33.8484 237.272 33.7942 237.272 33.7322V32.8022ZM238.336 30.1749C238.336 30.1362 238.378 30.1052 238.464 30.0819C238.549 30.0509 238.634 30.0354 238.719 30.0354H239.452C239.638 30.0354 239.762 30.0199 239.824 29.9889C239.886 29.9502 239.917 29.8378 239.917 29.6518C239.917 29.2101 239.917 28.7489 239.917 28.2684C239.917 27.7879 239.909 27.2687 239.894 26.7107C239.894 26.6487 239.913 26.5983 239.952 26.5596C239.998 26.5131 240.056 26.4898 240.126 26.4898H241.103C241.188 26.4898 241.25 26.5131 241.289 26.5596C241.327 26.5983 241.351 26.6487 241.358 26.7107C241.366 26.9587 241.37 27.1796 241.37 27.3733C241.378 27.5593 241.382 27.7376 241.382 27.9081C241.382 28.0786 241.382 28.2491 241.382 28.4196C241.382 28.5901 241.382 28.7799 241.382 28.9892C241.382 29.4852 241.378 29.9037 241.37 30.2447C241.37 30.5779 241.358 30.8492 241.335 31.0584C241.32 31.1359 241.292 31.2018 241.254 31.2561C241.223 31.3103 241.161 31.3568 241.068 31.3956C240.982 31.4188 240.866 31.4382 240.719 31.4537C240.579 31.4692 240.421 31.4847 240.242 31.5002C240.072 31.5079 239.894 31.5157 239.708 31.5234C239.522 31.5234 239.351 31.5234 239.196 31.5234H238.719C238.634 31.5234 238.549 31.5118 238.464 31.4886C238.378 31.4653 238.336 31.4304 238.336 31.3839V30.1749ZM239.638 25.2576C239.514 25.2576 239.452 25.2111 239.452 25.1181V24.7809C239.452 24.7034 239.514 24.6647 239.638 24.6647H239.859C239.797 24.5717 239.75 24.4671 239.719 24.3508C239.688 24.2346 239.673 24.1183 239.673 24.0021C239.673 23.3511 240.06 23.0256 240.835 23.0256C240.897 23.0256 240.979 23.0294 241.079 23.0372C241.188 23.0449 241.289 23.0643 241.382 23.0953C241.467 23.1108 241.509 23.1496 241.509 23.2116V23.5254C241.509 23.6029 241.459 23.6417 241.358 23.6417H240.951C240.75 23.6417 240.603 23.6766 240.51 23.7463C240.417 23.8161 240.37 23.9362 240.37 24.1067C240.37 24.2384 240.393 24.3547 240.44 24.4554C240.486 24.5484 240.545 24.6143 240.614 24.6531H241.428C241.552 24.6531 241.614 24.6918 241.614 24.7693V25.1181C241.614 25.2111 241.552 25.2576 241.428 25.2576H239.638ZM243.101 22.9093C243.101 22.8473 243.124 22.7931 243.171 22.7466C243.217 22.7001 243.275 22.6768 243.345 22.6768H244.38C244.457 22.6768 244.515 22.7001 244.554 22.7466C244.593 22.7931 244.612 22.8473 244.612 22.9093V29.4426C244.612 29.7061 244.666 29.8727 244.775 29.9424C244.883 30.0044 245.046 30.0354 245.263 30.0354H245.647V31.5234H244.833C244.569 31.5234 244.329 31.5041 244.112 31.4653C243.903 31.4188 243.721 31.3374 243.566 31.2212C243.419 31.0972 243.302 30.9306 243.217 30.7213C243.14 30.5043 243.101 30.2253 243.101 29.8843V22.9093ZM245.181 30.1749C245.181 30.1362 245.224 30.1052 245.309 30.0819C245.394 30.0509 245.48 30.0354 245.565 30.0354H246.727V26.0946C246.727 26.0326 246.751 25.9783 246.797 25.9318C246.844 25.8853 246.898 25.8621 246.96 25.8621H247.96C248.022 25.8621 248.076 25.8853 248.122 25.9318C248.169 25.9783 248.192 26.0326 248.192 26.0946V26.5247C248.394 26.3774 248.615 26.2612 248.855 26.1759C249.095 26.0829 249.331 26.0132 249.564 25.9667C249.804 25.9124 250.029 25.8776 250.238 25.8621C250.447 25.8466 250.618 25.8388 250.75 25.8388C251.246 25.8388 251.695 25.8931 252.098 26.0016C252.509 26.1101 252.858 26.2883 253.144 26.5363C253.431 26.7766 253.652 27.0982 253.807 27.5012C253.962 27.8964 254.04 28.3808 254.04 28.9543V29.2101C254.04 29.2643 254.04 29.3302 254.04 29.4077C254.04 29.4852 254.036 29.5666 254.028 29.6518C254.028 29.7293 254.02 29.8029 254.005 29.8727C253.997 29.9424 253.985 29.9967 253.97 30.0354H254.9V31.5234H245.565C245.48 31.5234 245.394 31.5118 245.309 31.4886C245.224 31.4653 245.181 31.4304 245.181 31.3839V30.1749ZM248.192 30.0471C248.37 30.0548 248.576 30.0626 248.808 30.0703C249.041 30.0703 249.308 30.0703 249.61 30.0703H252.296C252.389 30.0703 252.459 30.0199 252.505 29.9192C252.552 29.8184 252.575 29.6131 252.575 29.3031V29.1287C252.575 28.7799 252.528 28.4854 252.435 28.2452C252.35 28.0049 252.218 27.8112 252.04 27.6639C251.862 27.5167 251.633 27.4121 251.354 27.3501C251.075 27.2881 250.746 27.2571 250.366 27.2571C250.242 27.2571 250.087 27.2648 249.901 27.2803C249.715 27.2958 249.517 27.3268 249.308 27.3733C249.107 27.4121 248.905 27.4702 248.704 27.5477C248.51 27.6174 248.339 27.7066 248.192 27.8151V30.0471ZM254.434 30.1749C254.434 30.1362 254.476 30.1052 254.562 30.0819C254.647 30.0509 254.732 30.0354 254.817 30.0354H259.758L259.444 29.3147L259.212 28.8264C258.987 28.3382 258.661 27.9507 258.235 27.6639C257.809 27.3772 257.228 27.2338 256.491 27.2338C256.437 27.2338 256.34 27.2377 256.201 27.2454C256.061 27.2454 255.949 27.2493 255.864 27.2571C255.701 27.2726 255.619 27.2106 255.619 27.0711V26.2108C255.619 26.1023 255.697 26.0287 255.852 25.9899C256.232 25.9202 256.611 25.8853 256.991 25.8853C257.417 25.8853 257.813 25.9318 258.177 26.0248C258.541 26.1101 258.878 26.2612 259.188 26.4782C259.506 26.6874 259.801 26.9703 260.072 27.3268C260.343 27.6756 260.595 28.1134 260.827 28.6404L260.979 28.9659L261.42 30.0471C261.467 30.1556 261.49 30.2912 261.49 30.4539V31.2561C261.49 31.4343 261.389 31.5234 261.188 31.5234H254.817C254.724 31.5234 254.639 31.5118 254.562 31.4886C254.476 31.4576 254.434 31.4227 254.434 31.3839V30.1749ZM263.003 22.9093C263.003 22.8473 263.023 22.7931 263.062 22.7466C263.108 22.7001 263.166 22.6768 263.236 22.6768H264.282C264.352 22.6768 264.406 22.7001 264.445 22.7466C264.491 22.7931 264.515 22.8473 264.515 22.9093V31.2793C264.515 31.3413 264.491 31.3994 264.445 31.4537C264.406 31.5002 264.352 31.5234 264.282 31.5234H263.236C263.166 31.5234 263.108 31.5002 263.062 31.4537C263.023 31.3994 263.003 31.3413 263.003 31.2793V22.9093ZM262.759 34.5227C262.635 34.5227 262.573 34.4762 262.573 34.3832V34.0461C262.573 33.9686 262.635 33.9298 262.759 33.9298H262.98C262.918 33.8368 262.872 33.7322 262.841 33.6159C262.81 33.4997 262.794 33.3834 262.794 33.2672C262.794 32.6162 263.182 32.2907 263.957 32.2907C264.019 32.2907 264.1 32.2946 264.201 32.3023C264.309 32.3101 264.41 32.3294 264.503 32.3604C264.588 32.3759 264.631 32.4147 264.631 32.4767V32.7906C264.631 32.8681 264.581 32.9068 264.48 32.9068H264.073C263.871 32.9068 263.724 32.9417 263.631 33.0114C263.538 33.0812 263.492 33.2013 263.492 33.3718C263.492 33.5036 263.515 33.6159 263.561 33.7089C263.608 33.8097 263.666 33.8794 263.736 33.9182H264.55C264.674 33.9182 264.736 33.9569 264.736 34.0344V34.3832C264.736 34.4762 264.674 34.5227 264.55 34.5227H262.759Z" fill="#1C1C28"/>
<circle cx="140.833" cy="116.524" r="62.4068" stroke="#E5E5EF" stroke-width="10.1395"/>
<mask id="path-4-inside-1_1_1479" fill="white">
<path d="M139.5 54.0254C139.5 51.0731 141.897 48.6585 144.841 48.8828C152.076 49.4341 159.189 51.1029 165.914 53.8376C174.288 57.2428 181.898 62.234 188.307 68.526C194.716 74.8181 199.801 82.2879 203.269 90.5089C206.738 98.7298 208.523 107.541 208.523 116.439C208.523 125.338 206.738 134.149 203.269 142.37C199.801 150.591 194.716 158.061 188.307 164.353C181.898 170.645 174.288 175.636 165.914 179.041C159.189 181.776 152.076 183.445 144.841 183.996C141.897 184.22 139.5 181.806 139.5 178.853C139.5 175.901 141.898 173.533 144.839 173.266C150.642 172.741 156.343 171.361 161.746 169.163C168.799 166.296 175.208 162.092 180.606 156.793C186.004 151.493 190.286 145.202 193.207 138.278C196.129 131.355 197.633 123.934 197.633 116.439C197.633 108.945 196.129 101.524 193.207 94.6003C190.286 87.6765 186.004 81.3853 180.606 76.0861C175.208 70.7868 168.799 66.5832 161.746 63.7153C156.343 61.5181 150.642 60.1378 144.839 59.6124C141.898 59.3461 139.5 56.9778 139.5 54.0254Z"/>
</mask>
<path d="M139.5 54.0254C139.5 51.0731 141.897 48.6585 144.841 48.8828C152.076 49.4341 159.189 51.1029 165.914 53.8376C174.288 57.2428 181.898 62.234 188.307 68.526C194.716 74.8181 199.801 82.2879 203.269 90.5089C206.738 98.7298 208.523 107.541 208.523 116.439C208.523 125.338 206.738 134.149 203.269 142.37C199.801 150.591 194.716 158.061 188.307 164.353C181.898 170.645 174.288 175.636 165.914 179.041C159.189 181.776 152.076 183.445 144.841 183.996C141.897 184.22 139.5 181.806 139.5 178.853C139.5 175.901 141.898 173.533 144.839 173.266C150.642 172.741 156.343 171.361 161.746 169.163C168.799 166.296 175.208 162.092 180.606 156.793C186.004 151.493 190.286 145.202 193.207 138.278C196.129 131.355 197.633 123.934 197.633 116.439C197.633 108.945 196.129 101.524 193.207 94.6003C190.286 87.6765 186.004 81.3853 180.606 76.0861C175.208 70.7868 168.799 66.5832 161.746 63.7153C156.343 61.5181 150.642 60.1378 144.839 59.6124C141.898 59.3461 139.5 56.9778 139.5 54.0254Z" stroke="#0771DE" stroke-width="20.279" stroke-linecap="round" stroke-linejoin="round" mask="url(#path-4-inside-1_1_1479)"/>
<circle cx="141.077" cy="116.423" r="40.8718" transform="rotate(135 141.077 116.423)" stroke="#E5E5EF" stroke-width="8.87205"/>
<mask id="path-6-inside-2_1_1479" fill="white">
<path d="M181.622 116.279C184.324 116.254 186.546 118.458 186.23 121.141C185.451 127.762 183.227 134.178 179.693 139.927C175.292 147.087 169.027 152.934 161.586 156.828C154.144 160.723 145.812 162.514 137.502 162.007C130.839 161.6 124.397 159.728 118.624 156.548C116.257 155.245 115.748 152.161 117.318 149.962C118.875 147.782 121.888 147.303 124.27 148.529C128.59 150.752 133.353 152.065 138.268 152.365C144.811 152.765 151.372 151.354 157.232 148.287C163.091 145.221 168.024 140.617 171.49 134.979C174.119 130.702 175.827 125.955 176.525 121.047C176.895 118.441 178.99 116.304 181.622 116.279Z"/>
</mask>
<path d="M181.622 116.279C184.324 116.254 186.546 118.458 186.23 121.141C185.451 127.762 183.227 134.178 179.693 139.927C175.292 147.087 169.027 152.934 161.586 156.828C154.144 160.723 145.812 162.514 137.502 162.007C130.839 161.6 124.397 159.728 118.624 156.548C116.257 155.245 115.748 152.161 117.318 149.962C118.875 147.782 121.888 147.303 124.27 148.529C128.59 150.752 133.353 152.065 138.268 152.365C144.811 152.765 151.372 151.354 157.232 148.287C163.091 145.221 168.024 140.617 171.49 134.979C174.119 130.702 175.827 125.955 176.525 121.047C176.895 118.441 178.99 116.304 181.622 116.279Z" stroke="#FDB841" stroke-width="17.9955" stroke-linecap="round" stroke-linejoin="round" mask="url(#path-6-inside-2_1_1479)"/>
<path d="M130.099 113.445V103.375H128.6V101.699H131.952V113.445H130.099ZM134.958 101.667H142.048V103.278H136.65V106.485C137.085 105.905 138.036 105.421 139.083 105.421C141.967 105.421 142.853 107.564 142.853 109.337C142.853 111.673 141.516 113.445 138.793 113.445C136.376 113.445 134.974 112.108 134.7 110.271H136.489C136.731 111.27 137.568 111.915 138.809 111.915C140.388 111.915 141.097 110.835 141.097 109.385C141.097 107.854 140.34 106.984 138.809 106.984C137.73 106.984 137.005 107.58 136.698 108.45H134.958V101.667ZM146.747 107.306C145.748 106.807 145.072 105.969 145.072 104.664C145.072 102.956 146.345 101.49 148.939 101.49C151.533 101.49 152.806 102.972 152.806 104.664C152.806 105.921 152.081 106.839 151.13 107.306C152.322 107.758 153.112 108.805 153.112 110.207C153.112 112.35 151.372 113.735 148.939 113.735C146.522 113.735 144.782 112.35 144.782 110.207C144.782 108.789 145.571 107.741 146.747 107.306ZM148.939 106.726C150.163 106.726 151.049 105.953 151.049 104.89C151.049 103.681 150.228 103.02 148.939 103.02C147.682 103.02 146.844 103.665 146.844 104.906C146.844 105.969 147.714 106.726 148.939 106.726ZM148.939 108.112C147.585 108.112 146.538 108.773 146.538 110.142C146.538 111.335 147.44 112.205 148.939 112.205C150.421 112.205 151.307 111.318 151.307 110.142C151.307 108.821 150.324 108.112 148.939 108.112Z" fill="#1C1C28"/>
<path d="M130.743 131.838C130.743 131.732 130.807 131.68 130.935 131.68H131.172C131.42 131.68 131.623 131.668 131.781 131.646C131.939 131.623 132.067 131.574 132.165 131.499C132.262 131.424 132.33 131.311 132.368 131.161C132.405 131.018 132.424 130.823 132.424 130.574V125.578C132.424 125.518 132.443 125.469 132.48 125.431C132.518 125.386 132.567 125.364 132.627 125.364H133.18C133.232 125.364 133.277 125.386 133.315 125.431C133.353 125.469 133.371 125.518 133.371 125.578V130.507C133.371 130.762 133.356 131.003 133.326 131.229C133.304 131.454 133.244 131.657 133.146 131.838C132.995 132.101 132.785 132.285 132.514 132.39C132.251 132.496 131.901 132.548 131.465 132.548C131.428 132.548 131.345 132.544 131.217 132.537C131.097 132.529 130.999 132.518 130.924 132.503C130.849 132.488 130.8 132.465 130.777 132.435C130.755 132.413 130.743 132.375 130.743 132.323V131.838ZM132.413 123.051C132.413 122.976 132.439 122.916 132.492 122.871C132.544 122.826 132.604 122.803 132.672 122.803H133.168C133.236 122.803 133.293 122.826 133.338 122.871C133.39 122.916 133.417 122.976 133.417 123.051V123.661C133.417 123.728 133.39 123.785 133.338 123.83C133.293 123.875 133.232 123.897 133.157 123.897H132.672C132.597 123.897 132.533 123.875 132.48 123.83C132.435 123.785 132.413 123.728 132.413 123.661V123.051ZM135.293 121.664C135.293 121.604 135.312 121.551 135.349 121.506C135.394 121.461 135.447 121.439 135.507 121.439H136.06C136.12 121.439 136.169 121.461 136.206 121.506C136.244 121.551 136.263 121.604 136.263 121.664V128.285C136.263 128.435 136.278 128.556 136.308 128.646C136.345 128.728 136.394 128.792 136.454 128.837C136.522 128.883 136.601 128.913 136.691 128.928C136.789 128.943 136.898 128.95 137.018 128.95H137.3V129.92H136.77C136.53 129.92 136.319 129.901 136.139 129.864C135.958 129.819 135.804 129.744 135.676 129.638C135.548 129.525 135.451 129.379 135.383 129.198C135.323 129.018 135.293 128.785 135.293 128.499V121.664ZM137.228 129.92C137.123 129.92 137.032 129.909 136.957 129.886C136.882 129.856 136.844 129.815 136.844 129.762V129.097C136.844 129.052 136.882 129.018 136.957 128.995C137.032 128.965 137.123 128.95 137.228 128.95H138.514V125.183C138.514 125.033 138.6 124.935 138.773 124.89C139.014 124.822 139.269 124.777 139.54 124.755C139.811 124.732 140.093 124.721 140.386 124.721C141.183 124.721 141.811 124.897 142.27 125.251C142.736 125.604 142.969 126.176 142.969 126.965V127.134C142.969 127.796 142.833 128.36 142.563 128.826C142.3 129.292 141.89 129.604 141.333 129.762C141.221 129.8 141.085 129.83 140.927 129.853C140.769 129.868 140.604 129.883 140.431 129.898C140.266 129.905 140.096 129.913 139.924 129.92C139.758 129.92 139.604 129.92 139.461 129.92V130.202C139.461 130.766 139.551 131.183 139.732 131.454C139.912 131.732 140.254 131.871 140.758 131.871C141.247 131.871 141.578 131.744 141.751 131.488C141.924 131.232 142.018 130.826 142.033 130.27C142.033 130.24 142.033 130.195 142.033 130.135C142.04 130.074 142.044 130.01 142.044 129.943C142.051 129.883 142.059 129.822 142.067 129.762C142.074 129.702 142.082 129.661 142.089 129.638C142.164 129.36 142.311 129.172 142.529 129.074C142.634 129.022 142.758 128.988 142.901 128.973C143.044 128.958 143.202 128.95 143.375 128.95H143.849V129.92H143.612C143.491 129.92 143.36 129.92 143.217 129.92C143.082 129.928 142.991 129.935 142.946 129.943L142.935 130.36C142.912 131.142 142.736 131.736 142.405 132.142C142.074 132.556 141.529 132.762 140.769 132.762C140.333 132.762 139.969 132.706 139.675 132.593C139.39 132.481 139.16 132.315 138.987 132.097C138.814 131.887 138.69 131.627 138.615 131.319C138.548 131.018 138.514 130.676 138.514 130.292V129.92H137.228ZM140.363 128.95C140.957 128.95 141.382 128.804 141.638 128.51C141.894 128.21 142.021 127.781 142.021 127.225V127.022C142.021 126.751 141.98 126.525 141.897 126.345C141.822 126.164 141.713 126.022 141.57 125.916C141.435 125.803 141.266 125.725 141.063 125.679C140.867 125.634 140.645 125.612 140.397 125.612C140.194 125.612 140.025 125.615 139.89 125.623C139.754 125.631 139.612 125.646 139.461 125.668V128.95H140.363ZM146.127 131.217C146.127 131.142 146.154 131.082 146.206 131.037C146.259 130.992 146.319 130.969 146.387 130.969H146.872C146.94 130.969 147 130.992 147.052 131.037C147.105 131.082 147.131 131.142 147.131 131.217V131.826C147.131 131.887 147.105 131.939 147.052 131.984C147 132.037 146.94 132.063 146.872 132.063H146.387C146.319 132.063 146.259 132.037 146.206 131.984C146.154 131.939 146.127 131.887 146.127 131.826V131.217ZM143.398 129.097C143.398 129.052 143.436 129.018 143.511 128.995C143.586 128.965 143.676 128.95 143.782 128.95H149.015L148.609 127.98L148.349 127.383C148.101 126.811 147.77 126.386 147.357 126.108C146.951 125.822 146.394 125.679 145.688 125.679C145.658 125.679 145.609 125.683 145.541 125.691C145.481 125.691 145.409 125.694 145.327 125.702C145.252 125.709 145.173 125.717 145.09 125.725C145.015 125.725 144.947 125.728 144.887 125.736C144.721 125.751 144.639 125.698 144.639 125.578V125.115C144.639 125.055 144.654 125.01 144.684 124.98C144.714 124.943 144.77 124.916 144.853 124.901C145.018 124.864 145.203 124.837 145.406 124.822C145.616 124.807 145.789 124.8 145.924 124.8C146.3 124.8 146.654 124.837 146.985 124.912C147.316 124.98 147.628 125.112 147.921 125.307C148.214 125.495 148.485 125.758 148.733 126.097C148.981 126.428 149.214 126.856 149.432 127.383L149.545 127.676L150.019 128.883C150.034 128.935 150.045 128.988 150.053 129.04C150.068 129.093 150.075 129.161 150.075 129.244V129.65C150.075 129.732 150.053 129.8 150.007 129.853C149.962 129.898 149.876 129.92 149.748 129.92H143.782C143.669 129.92 143.578 129.905 143.511 129.875C143.436 129.838 143.398 129.8 143.398 129.762V129.097Z" fill="#6B7181"/>
<path d="M244.852 205.617L244.852 230.32" stroke="#0771DE" stroke-width="2.90625" stroke-linecap="round"/>
<path d="M211.255 215.617V206.535H209.904V205.024H212.926V215.617H211.255ZM215.202 210.183C215.202 207.16 216.016 204.835 218.98 204.835C221.945 204.835 222.758 207.16 222.758 210.183C222.758 213.263 221.945 215.588 218.98 215.588C216.016 215.588 215.202 213.263 215.202 210.183ZM221.131 210.183C221.131 208.206 220.913 206.346 218.98 206.346C217.048 206.346 216.83 208.206 216.83 210.183C216.83 212.26 217.048 214.077 218.98 214.077C220.913 214.077 221.131 212.26 221.131 210.183ZM226.299 210.081C225.398 209.63 224.787 208.875 224.787 207.698C224.787 206.157 225.935 204.835 228.275 204.835C230.614 204.835 231.762 206.172 231.762 207.698C231.762 208.831 231.108 209.659 230.251 210.081C231.326 210.488 232.038 211.432 232.038 212.696C232.038 214.629 230.469 215.879 228.275 215.879C226.095 215.879 224.526 214.629 224.526 212.696C224.526 211.418 225.238 210.473 226.299 210.081ZM228.275 209.558C229.379 209.558 230.178 208.86 230.178 207.901C230.178 206.811 229.437 206.215 228.275 206.215C227.141 206.215 226.386 206.797 226.386 207.916C226.386 208.875 227.17 209.558 228.275 209.558ZM228.275 210.807C227.054 210.807 226.11 211.403 226.11 212.638C226.11 213.714 226.923 214.498 228.275 214.498C229.612 214.498 230.411 213.699 230.411 212.638C230.411 211.447 229.524 210.807 228.275 210.807Z" fill="#1C1C28"/>
<path d="M182.512 229.688C182.656 229.688 182.716 229.772 182.692 229.94C182.676 230.124 182.66 230.316 182.644 230.516C182.628 230.708 182.62 230.872 182.62 231.008C182.62 231.424 182.648 231.816 182.704 232.184C182.76 232.552 182.88 232.872 183.064 233.144C183.256 233.416 183.532 233.628 183.892 233.78C184.26 233.94 184.752 234.02 185.368 234.02C185.528 234.02 185.7 234.016 185.884 234.008C186.076 234 186.256 233.976 186.424 233.936C186.432 233.712 186.436 233.516 186.436 233.348C186.444 233.18 186.448 233.02 186.448 232.868C186.448 232.716 186.448 232.568 186.448 232.424C186.448 232.28 186.448 232.124 186.448 231.956V224.216C186.448 224.152 186.468 224.1 186.508 224.06C186.548 224.012 186.6 223.988 186.664 223.988H187.264C187.328 223.988 187.38 224.012 187.42 224.06C187.46 224.1 187.48 224.152 187.48 224.216V232.82C187.48 232.916 187.476 233.044 187.468 233.204C187.468 233.364 187.464 233.532 187.456 233.708C187.456 233.892 187.452 234.064 187.444 234.224C187.444 234.392 187.44 234.524 187.432 234.62C187.424 234.7 187.4 234.756 187.36 234.788C187.32 234.82 187.256 234.848 187.168 234.872C186.888 234.936 186.6 234.98 186.304 235.004C186.008 235.036 185.684 235.052 185.332 235.052C184.628 235.052 184.04 234.968 183.568 234.8C183.096 234.64 182.716 234.404 182.428 234.092C182.14 233.78 181.936 233.4 181.816 232.952C181.696 232.496 181.636 231.984 181.636 231.416C181.636 231.336 181.64 231.236 181.648 231.116C181.656 230.988 181.664 230.856 181.672 230.72C181.688 230.576 181.704 230.436 181.72 230.3C181.736 230.156 181.756 230.028 181.78 229.916C181.812 229.764 181.884 229.688 181.996 229.688H182.512ZM192.953 228.464C192.793 228.448 192.637 228.436 192.485 228.428C192.333 228.42 192.153 228.416 191.945 228.416C191.417 228.416 190.997 228.564 190.685 228.86C190.381 229.156 190.229 229.58 190.229 230.132V230.372C190.229 230.94 190.349 231.352 190.589 231.608C190.829 231.864 191.237 231.992 191.813 231.992C192.125 231.992 192.393 231.972 192.617 231.932C192.841 231.892 192.953 231.78 192.953 231.596V228.464ZM189.641 235.016C189.641 234.904 189.705 234.848 189.833 234.848C189.969 234.848 190.141 234.848 190.349 234.848C190.557 234.856 190.725 234.86 190.853 234.86C191.173 234.86 191.461 234.84 191.717 234.8C191.973 234.768 192.189 234.7 192.365 234.596C192.549 234.5 192.689 234.36 192.785 234.176C192.889 234 192.941 233.768 192.941 233.48V232.772C192.885 232.82 192.801 232.86 192.689 232.892C192.585 232.916 192.465 232.94 192.329 232.964C192.201 232.98 192.073 232.992 191.945 233C191.817 233 191.705 233 191.609 233C190.881 233 190.301 232.792 189.869 232.376C189.437 231.96 189.221 231.332 189.221 230.492V230.192C189.221 229.352 189.469 228.688 189.965 228.2C190.461 227.712 191.165 227.468 192.077 227.468C192.397 227.468 192.705 227.484 193.001 227.516C193.305 227.54 193.561 227.584 193.769 227.648C193.849 227.672 193.901 227.7 193.925 227.732C193.949 227.756 193.961 227.8 193.961 227.864V233.3C193.961 233.796 193.889 234.204 193.745 234.524C193.601 234.844 193.401 235.096 193.145 235.28C192.889 235.472 192.585 235.604 192.233 235.676C191.881 235.756 191.493 235.796 191.069 235.796C190.989 235.796 190.885 235.792 190.757 235.784C190.637 235.784 190.513 235.78 190.385 235.772C190.265 235.772 190.153 235.768 190.049 235.76C189.945 235.752 189.873 235.744 189.833 235.736C189.753 235.72 189.701 235.696 189.677 235.664C189.653 235.64 189.641 235.6 189.641 235.544V235.016ZM197.082 225.308C197.082 225.244 197.102 225.188 197.142 225.14C197.19 225.092 197.246 225.068 197.31 225.068H197.886C197.95 225.068 197.998 225.092 198.03 225.14C198.07 225.188 198.09 225.244 198.09 225.308V230.66C198.09 230.812 198.018 230.888 197.874 230.888H197.31C197.158 230.888 197.082 230.812 197.082 230.66V225.308ZM195.474 232.184C195.474 232.04 195.55 231.968 195.702 231.968H200.034C200.266 231.968 200.414 231.948 200.478 231.908C200.55 231.868 200.586 231.744 200.586 231.536V224.216C200.586 224.152 200.606 224.096 200.646 224.048C200.686 224 200.738 223.976 200.802 223.976H201.414C201.478 223.976 201.526 224 201.558 224.048C201.598 224.096 201.618 224.152 201.618 224.216V231.14C201.618 231.468 201.614 231.74 201.606 231.956C201.598 232.172 201.586 232.364 201.57 232.532C201.554 232.612 201.53 232.68 201.498 232.736C201.466 232.792 201.402 232.84 201.306 232.88C201.242 232.904 201.15 232.924 201.03 232.94C200.91 232.948 200.774 232.96 200.622 232.976C200.47 232.984 200.314 232.992 200.154 233C199.994 233 199.838 233 199.686 233H195.702C195.55 233 195.474 232.932 195.474 232.796V232.184ZM196.782 224.168C196.638 224.168 196.566 224.12 196.566 224.024V223.82C196.566 223.74 196.638 223.7 196.782 223.7H196.986C196.914 223.612 196.862 223.508 196.83 223.388C196.798 223.26 196.782 223.136 196.782 223.016C196.782 222.68 196.878 222.436 197.07 222.284C197.27 222.124 197.55 222.044 197.91 222.044C197.974 222.044 198.046 222.048 198.126 222.056C198.206 222.064 198.286 222.076 198.366 222.092C198.454 222.124 198.498 222.172 198.498 222.236V222.404C198.498 222.492 198.446 222.536 198.342 222.536C198.326 222.536 198.27 222.536 198.174 222.536C198.078 222.528 198.01 222.524 197.97 222.524C197.546 222.524 197.334 222.704 197.334 223.064C197.334 223.232 197.362 223.372 197.418 223.484C197.474 223.588 197.534 223.656 197.598 223.688H198.402C198.538 223.688 198.606 223.736 198.606 223.832V224.024C198.606 224.088 198.586 224.128 198.546 224.144C198.514 224.16 198.466 224.168 198.402 224.168H196.782ZM203.725 224.216C203.725 224.152 203.745 224.096 203.785 224.048C203.833 224 203.889 223.976 203.953 223.976H204.541C204.605 223.976 204.657 224 204.697 224.048C204.737 224.096 204.757 224.152 204.757 224.216V232.76C204.757 232.824 204.737 232.88 204.697 232.928C204.657 232.976 204.605 233 204.541 233H203.953C203.889 233 203.833 232.976 203.785 232.928C203.745 232.88 203.725 232.824 203.725 232.76V224.216ZM208.365 235.04C208.365 234.928 208.433 234.872 208.569 234.872H208.821C209.085 234.872 209.301 234.86 209.469 234.836C209.637 234.812 209.773 234.76 209.877 234.68C209.981 234.6 210.053 234.48 210.093 234.32C210.133 234.168 210.153 233.96 210.153 233.696V228.38C210.153 228.316 210.173 228.264 210.213 228.224C210.253 228.176 210.305 228.152 210.369 228.152H210.957C211.013 228.152 211.061 228.176 211.101 228.224C211.141 228.264 211.161 228.316 211.161 228.38V233.624C211.161 233.896 211.145 234.152 211.113 234.392C211.089 234.632 211.025 234.848 210.921 235.04C210.761 235.32 210.537 235.516 210.249 235.628C209.969 235.74 209.597 235.796 209.133 235.796C209.093 235.796 209.005 235.792 208.869 235.784C208.741 235.776 208.637 235.764 208.557 235.748C208.477 235.732 208.425 235.708 208.401 235.676C208.377 235.652 208.365 235.612 208.365 235.556V235.04ZM213.205 224.216C213.205 224.152 213.225 224.096 213.265 224.048C213.313 224 213.369 223.976 213.433 223.976H214.021C214.085 223.976 214.137 224 214.177 224.048C214.217 224.096 214.237 224.152 214.237 224.216V231.26C214.237 231.42 214.253 231.548 214.285 231.644C214.325 231.732 214.377 231.8 214.441 231.848C214.513 231.896 214.597 231.928 214.693 231.944C214.797 231.96 214.913 231.968 215.041 231.968H215.341V233H214.777C214.521 233 214.297 232.98 214.105 232.94C213.913 232.892 213.749 232.812 213.613 232.7C213.477 232.58 213.373 232.424 213.301 232.232C213.237 232.04 213.205 231.792 213.205 231.488V224.216ZM214.856 232.124C214.856 232.076 214.896 232.04 214.976 232.016C215.056 231.984 215.152 231.968 215.264 231.968H215.804C215.884 231.968 215.972 231.964 216.068 231.956C216.164 231.948 216.256 231.932 216.344 231.908C216.432 231.876 216.504 231.832 216.56 231.776C216.624 231.712 216.656 231.628 216.656 231.524V228.38C216.656 228.316 216.676 228.264 216.716 228.224C216.764 228.176 216.82 228.152 216.884 228.152H217.436C217.5 228.152 217.552 228.176 217.592 228.224C217.64 228.264 217.664 228.316 217.664 228.38V231.68C217.688 231.744 217.736 231.796 217.808 231.836C217.888 231.868 217.972 231.896 218.06 231.92C218.156 231.936 218.252 231.948 218.348 231.956C218.444 231.964 218.528 231.968 218.6 231.968H218.768V233H218.624C218.376 233 218.108 232.976 217.82 232.928C217.54 232.872 217.308 232.764 217.124 232.604C216.924 232.764 216.684 232.872 216.404 232.928C216.132 232.976 215.884 233 215.66 233H215.264C215.152 233 215.056 232.988 214.976 232.964C214.896 232.932 214.856 232.888 214.856 232.832V232.124ZM215.492 234.38C215.492 234.3 215.516 234.236 215.564 234.188C215.62 234.14 215.688 234.116 215.768 234.116H216.236C216.316 234.116 216.38 234.14 216.428 234.188C216.484 234.236 216.512 234.3 216.512 234.38V235.028C216.512 235.092 216.484 235.148 216.428 235.196C216.372 235.252 216.308 235.28 216.236 235.28H215.768C215.688 235.28 215.62 235.252 215.564 235.196C215.516 235.148 215.492 235.092 215.492 235.028V234.38ZM217.448 234.38C217.448 234.3 217.476 234.236 217.532 234.188C217.596 234.14 217.664 234.116 217.736 234.116H218.204C218.276 234.116 218.34 234.14 218.396 234.188C218.452 234.236 218.48 234.3 218.48 234.38V235.028C218.48 235.092 218.452 235.148 218.396 235.196C218.34 235.252 218.276 235.28 218.204 235.28H217.736C217.664 235.28 217.596 235.252 217.532 235.196C217.476 235.148 217.448 235.092 217.448 235.028V234.38ZM218.698 233C218.57 233 218.47 232.984 218.398 232.952C218.326 232.912 218.29 232.872 218.29 232.832V232.124C218.29 232.076 218.33 232.04 218.41 232.016C218.49 231.984 218.586 231.968 218.698 231.968H224.266L223.834 230.936L223.558 230.3C223.294 229.684 222.942 229.228 222.502 228.932C222.07 228.636 221.478 228.488 220.726 228.488C220.662 228.488 220.538 228.496 220.354 228.512C220.17 228.52 220.01 228.532 219.874 228.548C219.698 228.564 219.61 228.508 219.61 228.38V227.888C219.61 227.824 219.626 227.776 219.658 227.744C219.69 227.704 219.75 227.676 219.838 227.66C220.006 227.62 220.19 227.592 220.39 227.576C220.598 227.56 220.794 227.552 220.978 227.552C221.378 227.552 221.754 227.592 222.106 227.672C222.458 227.744 222.79 227.884 223.102 228.092C223.414 228.292 223.702 228.572 223.966 228.932C224.23 229.284 224.478 229.74 224.71 230.3L224.842 230.612L225.322 231.824C225.362 231.888 225.394 231.928 225.418 231.944C225.442 231.96 225.486 231.968 225.55 231.968H225.634V233H218.698ZM221.098 225.356C221.098 225.276 221.126 225.212 221.182 225.164C221.238 225.116 221.302 225.092 221.374 225.092H221.902C221.974 225.092 222.034 225.116 222.082 225.164C222.138 225.212 222.166 225.276 222.166 225.356V226.004C222.166 226.076 222.138 226.136 222.082 226.184C222.034 226.232 221.97 226.256 221.89 226.256H221.374C221.294 226.256 221.226 226.232 221.17 226.184C221.122 226.136 221.098 226.076 221.098 226.004V225.356ZM225.157 232.124C225.157 232.076 225.197 232.04 225.277 232.016C225.357 231.984 225.453 231.968 225.565 231.968H226.525C226.757 231.968 226.901 231.948 226.957 231.908C227.021 231.868 227.053 231.744 227.053 231.536V224.216C227.053 224.152 227.073 224.1 227.113 224.06C227.161 224.012 227.217 223.988 227.281 223.988H227.869C227.933 223.988 227.985 224.012 228.025 224.06C228.065 224.1 228.085 224.152 228.085 224.216V231.14C228.085 231.236 228.085 231.344 228.085 231.464C228.085 231.584 228.081 231.708 228.073 231.836C228.073 231.964 228.069 232.088 228.061 232.208C228.053 232.328 228.041 232.436 228.025 232.532C228.009 232.612 227.985 232.68 227.953 232.736C227.921 232.792 227.857 232.84 227.761 232.88C227.697 232.904 227.605 232.924 227.485 232.94C227.365 232.948 227.233 232.96 227.089 232.976C226.945 232.984 226.793 232.992 226.633 233C226.481 233 226.337 233 226.201 233H225.565C225.453 233 225.357 232.988 225.277 232.964C225.197 232.932 225.157 232.888 225.157 232.832V232.124ZM230.127 224.216C230.127 224.152 230.147 224.096 230.187 224.048C230.235 224 230.291 223.976 230.355 223.976H230.943C231.007 223.976 231.059 224 231.099 224.048C231.139 224.096 231.159 224.152 231.159 224.216V232.76C231.159 232.824 231.139 232.88 231.099 232.928C231.059 232.976 231.007 233 230.943 233H230.355C230.291 233 230.235 232.976 230.187 232.928C230.147 232.88 230.127 232.824 230.127 232.76V224.216Z" fill="#B6BACA"/>
<path d="M114.07 205.617L114.07 230.32" stroke="#FDB841" stroke-width="2.90625" stroke-linecap="round"/>
<path d="M73.935 215.617V206.535H72.5836V205.024H75.6061V215.617H73.935ZM77.8819 210.183C77.8819 207.16 78.6956 204.835 81.66 204.835C84.6244 204.835 85.4381 207.16 85.4381 210.183C85.4381 213.263 84.6244 215.588 81.66 215.588C78.6956 215.588 77.8819 213.263 77.8819 210.183ZM83.8106 210.183C83.8106 208.206 83.5926 206.346 81.66 206.346C79.7273 206.346 79.5094 208.206 79.5094 210.183C79.5094 212.26 79.7273 214.077 81.66 214.077C83.5926 214.077 83.8106 212.26 83.8106 210.183ZM88.9783 210.081C88.0773 209.63 87.467 208.875 87.467 207.698C87.467 206.157 88.615 204.835 90.9545 204.835C93.2941 204.835 94.442 206.172 94.442 207.698C94.442 208.831 93.7881 209.659 92.9308 210.081C94.0061 210.488 94.7181 211.432 94.7181 212.696C94.7181 214.629 93.1487 215.879 90.9545 215.879C88.7748 215.879 87.2055 214.629 87.2055 212.696C87.2055 211.418 87.9175 210.473 88.9783 210.081ZM90.9545 209.558C92.0589 209.558 92.8581 208.86 92.8581 207.901C92.8581 206.811 92.117 206.215 90.9545 206.215C89.8211 206.215 89.0655 206.797 89.0655 207.916C89.0655 208.875 89.8502 209.558 90.9545 209.558ZM90.9545 210.807C89.7339 210.807 88.7894 211.403 88.7894 212.638C88.7894 213.714 89.6031 214.498 90.9545 214.498C92.2914 214.498 93.0906 213.699 93.0906 212.638C93.0906 211.447 92.2042 210.807 90.9545 210.807Z" fill="#1C1C28"/>
<path d="M41.66 232.404C41.66 232.332 41.664 232.236 41.672 232.116C41.68 231.996 41.688 231.868 41.696 231.732C41.712 231.588 41.728 231.448 41.744 231.312C41.76 231.168 41.78 231.036 41.804 230.916C41.828 230.764 41.908 230.688 42.044 230.688H42.548C42.684 230.688 42.748 230.768 42.74 230.928C42.716 231.112 42.692 231.312 42.668 231.528C42.652 231.736 42.644 231.908 42.644 232.044C42.644 232.444 42.668 232.824 42.716 233.184C42.772 233.536 42.888 233.844 43.064 234.108C43.248 234.38 43.516 234.596 43.868 234.756C44.228 234.916 44.716 234.996 45.332 234.996C45.564 234.996 45.8 234.988 46.04 234.972C46.288 234.964 46.504 234.94 46.688 234.9C46.688 234.676 46.688 234.48 46.688 234.312C46.696 234.152 46.7 234.004 46.7 233.868C46.7 233.724 46.7 233.584 46.7 233.448C46.7 233.312 46.7 233.16 46.7 232.992V231.684C46.7 230.836 46.94 230.22 47.42 229.836C47.908 229.452 48.58 229.26 49.436 229.26C49.7 229.26 49.964 229.272 50.228 229.296C50.5 229.32 50.748 229.36 50.972 229.416C51.036 229.432 51.084 229.456 51.116 229.488C51.148 229.512 51.164 229.56 51.164 229.632V232.524C51.164 232.716 51.204 232.84 51.284 232.896C51.372 232.944 51.54 232.968 51.788 232.968H52.34V234H51.536C51.032 234 50.676 233.912 50.468 233.736C50.26 233.552 50.156 233.224 50.156 232.752V230.268C49.996 230.244 49.856 230.228 49.736 230.22C49.624 230.212 49.496 230.208 49.352 230.208C49.096 230.208 48.864 230.232 48.656 230.28C48.456 230.328 48.284 230.412 48.14 230.532C48.004 230.644 47.896 230.8 47.816 231C47.744 231.2 47.708 231.452 47.708 231.756V233.928C47.708 234.04 47.708 234.168 47.708 234.312C47.708 234.456 47.704 234.604 47.696 234.756C47.696 234.916 47.692 235.068 47.684 235.212C47.684 235.356 47.68 235.484 47.672 235.596C47.672 235.732 47.588 235.816 47.42 235.848C47.124 235.904 46.792 235.944 46.424 235.968C46.056 235.992 45.68 236.004 45.296 236.004C44.584 236.004 43.996 235.916 43.532 235.74C43.068 235.572 42.696 235.332 42.416 235.02C42.136 234.708 41.94 234.332 41.828 233.892C41.716 233.444 41.66 232.948 41.66 232.404ZM43.244 237.204C43.244 237.124 43.268 237.06 43.316 237.012C43.372 236.972 43.44 236.952 43.52 236.952H43.964C44.036 236.952 44.1 236.972 44.156 237.012C44.212 237.06 44.24 237.124 44.24 237.204V237.804C44.24 237.868 44.208 237.924 44.144 237.972C44.088 238.02 44.028 238.044 43.964 238.044H43.52C43.44 238.044 43.372 238.02 43.316 237.972C43.268 237.924 43.244 237.868 43.244 237.804V237.204ZM45.188 237.204C45.188 237.124 45.216 237.06 45.272 237.012C45.328 236.972 45.388 236.952 45.452 236.952H45.92C45.984 236.952 46.044 236.972 46.1 237.012C46.156 237.06 46.184 237.124 46.184 237.204V237.804C46.184 237.868 46.156 237.924 46.1 237.972C46.044 238.02 45.984 238.044 45.92 238.044H45.452C45.388 238.044 45.328 238.02 45.272 237.972C45.216 237.924 45.188 237.868 45.188 237.804V237.204ZM53.5678 226.692C53.5678 226.612 53.5958 226.548 53.6518 226.5C53.7078 226.452 53.7718 226.428 53.8438 226.428H54.3718C54.4438 226.428 54.5038 226.452 54.5518 226.5C54.6078 226.548 54.6358 226.612 54.6358 226.692V227.34C54.6358 227.412 54.6078 227.472 54.5518 227.52C54.5038 227.568 54.4398 227.592 54.3598 227.592H53.8438C53.7638 227.592 53.6958 227.568 53.6398 227.52C53.5918 227.472 53.5678 227.412 53.5678 227.34V226.692ZM51.8637 233.124C51.8637 233.076 51.9037 233.04 51.9837 233.016C52.0637 232.984 52.1597 232.968 52.2717 232.968H53.1118C53.3438 232.968 53.4918 232.948 53.5558 232.908C53.6198 232.868 53.6518 232.744 53.6518 232.536C53.6518 232.256 53.6518 231.992 53.6518 231.744C53.6518 231.496 53.6518 231.248 53.6518 231C53.6518 230.752 53.6478 230.496 53.6398 230.232C53.6398 229.968 53.6358 229.68 53.6278 229.368C53.6278 229.304 53.6438 229.252 53.6758 229.212C53.7158 229.164 53.7678 229.14 53.8318 229.14H54.4078C54.4798 229.14 54.5358 229.164 54.5758 229.212C54.6158 229.252 54.6358 229.304 54.6358 229.368C54.6438 229.64 54.6478 229.868 54.6478 230.052C54.6558 230.236 54.6598 230.412 54.6598 230.58C54.6598 230.74 54.6598 230.908 54.6598 231.084C54.6598 231.252 54.6598 231.456 54.6598 231.696C54.6598 232.08 54.6558 232.436 54.6478 232.764C54.6478 233.092 54.6358 233.348 54.6118 233.532C54.5958 233.612 54.5678 233.68 54.5278 233.736C54.4958 233.792 54.4318 233.84 54.3358 233.88C54.2718 233.904 54.1838 233.924 54.0718 233.94C53.9598 233.948 53.8318 233.96 53.6878 233.976C53.5438 233.984 53.3958 233.992 53.2438 234C53.0918 234 52.9478 234 52.8118 234H52.2717C52.1597 234 52.0637 233.988 51.9837 233.964C51.9037 233.932 51.8637 233.888 51.8637 233.832V233.124ZM56.7284 225.216C56.7284 225.152 56.7484 225.096 56.7884 225.048C56.8364 225 56.8924 224.976 56.9564 224.976H57.5444C57.6084 224.976 57.6604 225 57.7004 225.048C57.7404 225.096 57.7604 225.152 57.7604 225.216V232.26C57.7604 232.42 57.7764 232.548 57.8084 232.644C57.8484 232.732 57.9004 232.8 57.9644 232.848C58.0364 232.896 58.1204 232.928 58.2164 232.944C58.3204 232.96 58.4364 232.968 58.5644 232.968H58.8644V234H58.3004C58.0444 234 57.8204 233.98 57.6284 233.94C57.4364 233.892 57.2724 233.812 57.1364 233.7C57.0004 233.58 56.8964 233.424 56.8244 233.232C56.7604 233.04 56.7284 232.792 56.7284 232.488V225.216ZM58.3794 233.124C58.3794 233.076 58.4194 233.04 58.4994 233.016C58.5794 232.984 58.6754 232.968 58.7874 232.968H59.3274C59.4074 232.968 59.4954 232.964 59.5914 232.956C59.6874 232.948 59.7794 232.932 59.8674 232.908C59.9554 232.876 60.0274 232.832 60.0834 232.776C60.1474 232.712 60.1794 232.628 60.1794 232.524V229.38C60.1794 229.316 60.1994 229.264 60.2394 229.224C60.2874 229.176 60.3434 229.152 60.4074 229.152H60.9594C61.0234 229.152 61.0754 229.176 61.1154 229.224C61.1634 229.264 61.1874 229.316 61.1874 229.38V232.68C61.2114 232.744 61.2594 232.796 61.3314 232.836C61.4114 232.868 61.4954 232.896 61.5834 232.92C61.6794 232.936 61.7754 232.948 61.8714 232.956C61.9674 232.964 62.0514 232.968 62.1234 232.968H62.2914V234H62.1474C61.8994 234 61.6314 233.976 61.3434 233.928C61.0634 233.872 60.8314 233.764 60.6474 233.604C60.4474 233.764 60.2074 233.872 59.9274 233.928C59.6554 233.976 59.4074 234 59.1834 234H58.7874C58.6754 234 58.5794 233.988 58.4994 233.964C58.4194 233.932 58.3794 233.888 58.3794 233.832V233.124ZM59.1474 226.74C59.1474 226.66 59.1714 226.596 59.2194 226.548C59.2754 226.492 59.3434 226.464 59.4234 226.464H59.8914C59.9714 226.464 60.0354 226.492 60.0834 226.548C60.1394 226.596 60.1674 226.66 60.1674 226.74V227.34C60.1674 227.412 60.1394 227.472 60.0834 227.52C60.0274 227.568 59.9634 227.592 59.8914 227.592H59.4234C59.3434 227.592 59.2754 227.568 59.2194 227.52C59.1714 227.472 59.1474 227.412 59.1474 227.34V226.74ZM61.1034 226.74C61.1034 226.66 61.1314 226.596 61.1874 226.548C61.2514 226.492 61.3194 226.464 61.3914 226.464H61.8594C61.9314 226.464 61.9954 226.492 62.0514 226.548C62.1074 226.596 62.1354 226.66 62.1354 226.74V227.34C62.1354 227.412 62.1074 227.472 62.0514 227.52C61.9954 227.568 61.9314 227.592 61.8594 227.592H61.3914C61.3194 227.592 61.2514 227.568 61.1874 227.52C61.1314 227.472 61.1034 227.412 61.1034 227.34V226.74ZM60.1554 225.252C60.1554 225.18 60.1834 225.12 60.2394 225.072C60.2954 225.024 60.3594 225 60.4314 225H60.8754C60.9474 225 61.0114 225.024 61.0674 225.072C61.1234 225.12 61.1514 225.18 61.1514 225.252V225.792C61.1514 225.872 61.1194 225.936 61.0554 225.984C60.9994 226.024 60.9354 226.044 60.8634 226.044H60.4194C60.3474 226.044 60.2834 226.024 60.2274 225.984C60.1794 225.936 60.1554 225.872 60.1554 225.792V225.252ZM61.813 233.124C61.813 233.076 61.853 233.04 61.933 233.016C62.013 232.984 62.109 232.968 62.221 232.968H63.181C63.413 232.968 63.557 232.948 63.613 232.908C63.677 232.868 63.709 232.744 63.709 232.536V225.216C63.709 225.152 63.729 225.1 63.769 225.06C63.817 225.012 63.873 224.988 63.937 224.988H64.525C64.589 224.988 64.641 225.012 64.681 225.06C64.721 225.1 64.741 225.152 64.741 225.216V232.14C64.741 232.236 64.741 232.344 64.741 232.464C64.741 232.584 64.737 232.708 64.729 232.836C64.729 232.964 64.725 233.088 64.717 233.208C64.709 233.328 64.697 233.436 64.681 233.532C64.665 233.612 64.641 233.68 64.609 233.736C64.577 233.792 64.513 233.84 64.417 233.88C64.353 233.904 64.261 233.924 64.141 233.94C64.021 233.948 63.889 233.96 63.745 233.976C63.601 233.984 63.449 233.992 63.289 234C63.137 234 62.993 234 62.857 234H62.221C62.109 234 62.013 233.988 61.933 233.964C61.853 233.932 61.813 233.888 61.813 233.832V233.124ZM66.7831 225.216C66.7831 225.152 66.8031 225.096 66.8431 225.048C66.8911 225 66.9471 224.976 67.0111 224.976H67.5991C67.6631 224.976 67.7151 225 67.7551 225.048C67.7951 225.096 67.8151 225.152 67.8151 225.216V233.76C67.8151 233.824 67.7951 233.88 67.7551 233.928C67.7151 233.976 67.6631 234 67.5991 234H67.0111C66.9471 234 66.8911 233.976 66.8431 233.928C66.8031 233.88 66.7831 233.824 66.7831 233.76V225.216ZM71.4235 236.04C71.4235 235.928 71.4915 235.872 71.6275 235.872H71.8795C72.1435 235.872 72.3595 235.86 72.5275 235.836C72.6955 235.812 72.8315 235.76 72.9355 235.68C73.0395 235.6 73.1115 235.48 73.1515 235.32C73.1915 235.168 73.2115 234.96 73.2115 234.696V229.38C73.2115 229.316 73.2315 229.264 73.2715 229.224C73.3115 229.176 73.3635 229.152 73.4275 229.152H74.0155C74.0715 229.152 74.1195 229.176 74.1595 229.224C74.1995 229.264 74.2195 229.316 74.2195 229.38V234.624C74.2195 234.896 74.2035 235.152 74.1715 235.392C74.1475 235.632 74.0835 235.848 73.9795 236.04C73.8195 236.32 73.5955 236.516 73.3075 236.628C73.0275 236.74 72.6555 236.796 72.1915 236.796C72.1515 236.796 72.0635 236.792 71.9275 236.784C71.7995 236.776 71.6955 236.764 71.6155 236.748C71.5355 236.732 71.4835 236.708 71.4595 236.676C71.4355 236.652 71.4235 236.612 71.4235 236.556V236.04ZM76.2636 225.216C76.2636 225.152 76.2836 225.096 76.3236 225.048C76.3716 225 76.4276 224.976 76.4916 224.976H77.0796C77.1436 224.976 77.1956 225 77.2356 225.048C77.2756 225.096 77.2956 225.152 77.2956 225.216V232.26C77.2956 232.42 77.3116 232.548 77.3436 232.644C77.3836 232.732 77.4356 232.8 77.4996 232.848C77.5716 232.896 77.6556 232.928 77.7516 232.944C77.8556 232.96 77.9716 232.968 78.0996 232.968H78.3996V234H77.8356C77.5796 234 77.3556 233.98 77.1636 233.94C76.9716 233.892 76.8076 233.812 76.6716 233.7C76.5356 233.58 76.4316 233.424 76.3596 233.232C76.2956 233.04 76.2636 232.792 76.2636 232.488V225.216ZM77.9145 233.124C77.9145 233.076 77.9545 233.04 78.0345 233.016C78.1145 232.984 78.2105 232.968 78.3225 232.968H78.8625C78.9425 232.968 79.0305 232.964 79.1265 232.956C79.2225 232.948 79.3145 232.932 79.4025 232.908C79.4905 232.876 79.5625 232.832 79.6185 232.776C79.6825 232.712 79.7145 232.628 79.7145 232.524V229.38C79.7145 229.316 79.7345 229.264 79.7745 229.224C79.8225 229.176 79.8785 229.152 79.9425 229.152H80.4945C80.5585 229.152 80.6105 229.176 80.6505 229.224C80.6985 229.264 80.7225 229.316 80.7225 229.38V232.68C80.7465 232.744 80.7945 232.796 80.8665 232.836C80.9465 232.868 81.0305 232.896 81.1185 232.92C81.2145 232.936 81.3105 232.948 81.4065 232.956C81.5025 232.964 81.5865 232.968 81.6585 232.968H81.8265V234H81.6825C81.4345 234 81.1665 233.976 80.8785 233.928C80.5985 233.872 80.3665 233.764 80.1825 233.604C79.9825 233.764 79.7425 233.872 79.4625 233.928C79.1905 233.976 78.9425 234 78.7185 234H78.3225C78.2105 234 78.1145 233.988 78.0345 233.964C77.9545 233.932 77.9145 233.888 77.9145 233.832V233.124ZM78.5505 235.38C78.5505 235.3 78.5745 235.236 78.6225 235.188C78.6785 235.14 78.7465 235.116 78.8265 235.116H79.2945C79.3745 235.116 79.4385 235.14 79.4865 235.188C79.5425 235.236 79.5705 235.3 79.5705 235.38V236.028C79.5705 236.092 79.5425 236.148 79.4865 236.196C79.4305 236.252 79.3665 236.28 79.2945 236.28H78.8265C78.7465 236.28 78.6785 236.252 78.6225 236.196C78.5745 236.148 78.5505 236.092 78.5505 236.028V235.38ZM80.5065 235.38C80.5065 235.3 80.5345 235.236 80.5905 235.188C80.6545 235.14 80.7225 235.116 80.7945 235.116H81.2625C81.3345 235.116 81.3985 235.14 81.4545 235.188C81.5105 235.236 81.5385 235.3 81.5385 235.38V236.028C81.5385 236.092 81.5105 236.148 81.4545 236.196C81.3985 236.252 81.3345 236.28 81.2625 236.28H80.7945C80.7225 236.28 80.6545 236.252 80.5905 236.196C80.5345 236.148 80.5065 236.092 80.5065 236.028V235.38ZM81.7561 234C81.6281 234 81.5281 233.984 81.4561 233.952C81.3841 233.912 81.3481 233.872 81.3481 233.832V233.124C81.3481 233.076 81.3881 233.04 81.4681 233.016C81.5481 232.984 81.6441 232.968 81.7561 232.968H87.3241L86.8921 231.936L86.6161 231.3C86.3521 230.684 86.0001 230.228 85.5601 229.932C85.1281 229.636 84.5361 229.488 83.7841 229.488C83.7201 229.488 83.5961 229.496 83.4121 229.512C83.2281 229.52 83.0681 229.532 82.9321 229.548C82.7561 229.564 82.6681 229.508 82.6681 229.38V228.888C82.6681 228.824 82.6841 228.776 82.7161 228.744C82.7481 228.704 82.8081 228.676 82.8961 228.66C83.0641 228.62 83.2481 228.592 83.4481 228.576C83.6561 228.56 83.8521 228.552 84.0361 228.552C84.4361 228.552 84.8121 228.592 85.1641 228.672C85.5161 228.744 85.8481 228.884 86.1601 229.092C86.4721 229.292 86.7601 229.572 87.0241 229.932C87.2881 230.284 87.5361 230.74 87.7681 231.3L87.9001 231.612L88.3801 232.824C88.4201 232.888 88.4521 232.928 88.4761 232.944C88.5001 232.96 88.5441 232.968 88.6081 232.968H88.6921V234H81.7561ZM84.1561 226.356C84.1561 226.276 84.1841 226.212 84.2401 226.164C84.2961 226.116 84.3601 226.092 84.4321 226.092H84.9601C85.0321 226.092 85.0921 226.116 85.1401 226.164C85.1961 226.212 85.2241 226.276 85.2241 226.356V227.004C85.2241 227.076 85.1961 227.136 85.1401 227.184C85.0921 227.232 85.0281 227.256 84.9481 227.256H84.4321C84.3521 227.256 84.2841 227.232 84.2281 227.184C84.1801 227.136 84.1561 227.076 84.1561 227.004V226.356ZM88.2153 233.124C88.2153 233.076 88.2553 233.04 88.3353 233.016C88.4153 232.984 88.5113 232.968 88.6233 232.968H89.5833C89.8153 232.968 89.9593 232.948 90.0153 232.908C90.0793 232.868 90.1113 232.744 90.1113 232.536V225.216C90.1113 225.152 90.1313 225.1 90.1713 225.06C90.2193 225.012 90.2753 224.988 90.3393 224.988H90.9273C90.9913 224.988 91.0433 225.012 91.0833 225.06C91.1233 225.1 91.1433 225.152 91.1433 225.216V232.14C91.1433 232.236 91.1433 232.344 91.1433 232.464C91.1433 232.584 91.1393 232.708 91.1313 232.836C91.1313 232.964 91.1273 233.088 91.1193 233.208C91.1113 233.328 91.0993 233.436 91.0833 233.532C91.0673 233.612 91.0433 233.68 91.0113 233.736C90.9793 233.792 90.9153 233.84 90.8193 233.88C90.7553 233.904 90.6633 233.924 90.5433 233.94C90.4233 233.948 90.2913 233.96 90.1473 233.976C90.0033 233.984 89.8513 233.992 89.6913 234C89.5393 234 89.3953 234 89.2593 234H88.6233C88.5113 234 88.4153 233.988 88.3353 233.964C88.2553 233.932 88.2153 233.888 88.2153 233.832V233.124ZM93.1855 225.216C93.1855 225.152 93.2055 225.096 93.2455 225.048C93.2935 225 93.3495 224.976 93.4135 224.976H94.0015C94.0655 224.976 94.1175 225 94.1575 225.048C94.1975 225.096 94.2175 225.152 94.2175 225.216V233.76C94.2175 233.824 94.1975 233.88 94.1575 233.928C94.1175 233.976 94.0655 234 94.0015 234H93.4135C93.3495 234 93.2935 233.976 93.2455 233.928C93.2055 233.88 93.1855 233.824 93.1855 233.76V225.216Z" fill="#B6BACA"/>
</svg>
