<svg width="155" height="42" viewBox="0 0 155 42" fill="none" xmlns="http://www.w3.org/2000/svg">
<path d="M51.0972 26.7237V9.12906H48.2121V26.7237H51.0972Z" fill="#1C1C28"/>
<path d="M52.8629 20.8595C52.8629 24.4541 55.275 27.0082 58.9406 27.0082C62.6062 27.0082 65.0183 24.4541 65.0183 20.8595C65.0183 17.2649 62.6062 14.7108 58.9406 14.7108C55.275 14.7108 52.8629 17.2649 52.8629 20.8595ZM55.7717 20.8595C55.7717 18.7548 57.025 17.2886 58.9406 17.2886C60.8561 17.2886 62.1095 18.7548 62.1095 20.8595C62.1095 22.9406 60.8561 24.4305 58.9406 24.4305C57.025 24.4305 55.7717 22.9406 55.7717 20.8595Z" fill="#1C1C28"/>
<path d="M65.9888 20.6225C65.9888 24.0279 68.1881 26.4874 71.4753 26.4874C73.178 26.4874 74.6442 25.8015 75.3773 24.6664V26.6529C75.3773 28.5684 74.1712 29.8455 72.1611 29.8455C70.3638 29.8455 69.1341 28.9705 68.9685 27.4333H66.0597C66.4381 30.484 68.7793 32.4705 71.9956 32.4705C75.7794 32.4705 78.1915 29.9874 78.1915 26.1326V15.0413H75.6375L75.4719 16.6258C74.7625 15.3961 73.2962 14.663 71.5699 14.663C68.2354 14.663 65.9888 17.1934 65.9888 20.6225ZM68.9212 20.5515C68.9212 18.6123 70.151 17.1934 71.9719 17.1934C73.9584 17.1934 75.2827 18.636 75.2827 20.5515C75.2827 22.4907 73.9584 23.9806 71.9719 23.9806C70.1746 23.9806 68.9212 22.5144 68.9212 20.5515Z" fill="#1C1C28"/>
<path d="M79.6195 20.8595C79.6195 24.4541 82.0317 27.0082 85.6972 27.0082C89.3628 27.0082 91.775 24.4541 91.775 20.8595C91.775 17.2649 89.3628 14.7108 85.6972 14.7108C82.0317 14.7108 79.6195 17.2649 79.6195 20.8595ZM82.5283 20.8595C82.5283 18.7548 83.7817 17.2886 85.6972 17.2886C87.6128 17.2886 88.8662 18.7548 88.8662 20.8595C88.8662 22.9406 87.6128 24.4305 85.6972 24.4305C83.7817 24.4305 82.5283 22.9406 82.5283 20.8595Z" fill="#1C1C28"/>
<path d="M94.8972 12.6531C95.8432 12.6531 96.6236 11.8964 96.6236 10.9268C96.6236 9.98081 95.8432 9.22404 94.8972 9.22404C93.9276 9.22404 93.1945 9.98081 93.1945 10.9268C93.1945 11.8964 93.9276 12.6531 94.8972 12.6531ZM93.4547 26.7241H96.3398V15.0416H93.4547V26.7241Z" fill="#1C1C28"/>
<path d="M98.8676 32.1393H101.682V25.1157C102.415 26.3217 104 27.0312 105.75 27.0312C109.202 27.0312 111.26 24.3825 111.212 20.7406C111.141 17.0751 109.037 14.6865 105.726 14.6865C103.952 14.6865 102.344 15.467 101.635 16.8149L101.469 15.0413H98.8676V32.1393ZM101.8 20.8825C101.8 18.7778 103.077 17.3116 105.087 17.3116C107.098 17.3116 108.304 18.8014 108.304 20.8825C108.304 22.9636 107.098 24.4298 105.087 24.4298C103.077 24.4298 101.8 22.9873 101.8 20.8825Z" fill="#1C1C28"/>
<path d="M111.945 23.2237C112.039 25.5413 113.836 27.0312 116.627 27.0312C119.37 27.0312 121.238 25.565 121.238 23.2947C121.238 21.6156 120.198 20.4805 118.282 20.0075L116.225 19.5109C115.35 19.2744 114.759 18.967 114.759 18.2102C114.759 17.4061 115.397 16.8386 116.438 16.8386C117.526 16.8386 118.235 17.4534 118.235 18.4703H120.86C120.766 16.1528 119.039 14.6865 116.509 14.6865C114.002 14.6865 112.134 16.1528 112.134 18.3757C112.134 19.8893 113.009 21.1427 115.255 21.7339L117.289 22.2541C118.046 22.467 118.519 22.8217 118.519 23.4839C118.519 24.4062 117.644 24.8319 116.58 24.8319C115.303 24.8319 114.57 24.2406 114.57 23.2237H111.945Z" fill="#1C1C28"/>
<path d="M127.224 27.0315C128.808 27.0315 130.322 26.2984 131.007 25.2105L131.197 26.724H133.892V15.0415H131.007V21.1666C131.007 23.2713 130.203 24.4537 128.311 24.4537C126.845 24.4537 125.828 23.7443 125.828 21.3321V15.0415H122.943V22.349C122.943 25.1396 124.457 27.0315 127.224 27.0315Z" fill="#1C1C28"/>
<path d="M139.324 26.7238V20.0075C139.324 18.1156 140.435 17.217 141.807 17.217C143.178 17.217 144.077 18.092 144.077 19.7474V26.7238H146.891V20.0312C146.891 18.1156 147.979 17.217 149.351 17.217C150.746 17.217 151.645 18.092 151.645 19.7474V26.7238H154.435V19.0852C154.435 16.3893 152.945 14.6865 150.107 14.6865C148.334 14.6865 146.938 15.5379 146.371 16.9095C145.732 15.5379 144.455 14.6865 142.516 14.6865C141.144 14.6865 139.915 15.3251 139.229 16.3656L139.087 15.0413H136.438V26.7238H139.324Z" fill="#1C1C28"/>
<path d="M132.407 37.1646C132.837 37.1646 133.21 36.8027 133.21 36.3729C133.21 35.9318 132.837 35.5699 132.407 35.5699C131.966 35.5699 131.593 35.9318 131.593 36.3729C131.593 36.8027 131.966 37.1646 132.407 37.1646Z" fill="#1C1C28"/>
<path d="M134.04 34.2466C134.04 35.9771 135.103 37.142 136.652 37.142C137.987 37.142 139.005 36.339 139.22 35.1401H138.202C138.009 35.8074 137.421 36.2033 136.72 36.2033C135.725 36.2033 135.091 35.4342 135.091 34.2353C135.091 33.0138 135.759 32.2673 136.743 32.2673C137.421 32.2673 138.009 32.6292 138.19 33.3418H139.208C139.027 32.1316 138.077 31.3172 136.754 31.3172C135.148 31.3172 134.04 32.5048 134.04 34.2466Z" fill="#1C1C28"/>
<path d="M139.621 34.2351C139.621 35.8977 140.752 37.1418 142.448 37.1418C144.145 37.1418 145.276 35.8977 145.276 34.2351C145.276 32.5724 144.145 31.3283 142.448 31.3283C140.752 31.3283 139.621 32.5724 139.621 34.2351ZM140.695 34.2351C140.695 33.104 141.385 32.2784 142.448 32.2784C143.512 32.2784 144.201 33.104 144.201 34.2351C144.201 35.3661 143.512 36.1917 142.448 36.1917C141.385 36.1917 140.695 35.3661 140.695 34.2351Z" fill="#1C1C28"/>
<path d="M147.247 37.0174V33.6922C147.247 32.8213 147.79 32.2558 148.581 32.2558C149.339 32.2558 149.814 32.7421 149.814 33.613V37.0174H150.855V33.7035C150.855 32.8213 151.386 32.2558 152.189 32.2558C152.936 32.2558 153.411 32.7421 153.411 33.613V37.0174H154.44V33.3868C154.44 32.1087 153.694 31.3283 152.427 31.3283C151.567 31.3283 150.9 31.7468 150.629 32.4254C150.346 31.7468 149.724 31.3283 148.819 31.3283C148.129 31.3283 147.518 31.645 147.213 32.1879L147.134 31.4867H146.184V37.0174H147.247Z" fill="#1C1C28"/>
<path fill-rule="evenodd" clip-rule="evenodd" d="M0.263611 21.0025L0.265595 20.7964L0.269687 20.5903L0.275898 20.3841L0.284216 20.1779L0.294663 19.9718L0.307217 19.7656L0.3219 19.5596L0.338691 19.3535L0.35761 19.1476L0.378647 18.9416L0.401802 18.736L0.427065 18.5303L0.454457 18.3249L0.483966 18.1197L0.515583 17.9146L0.549319 17.7099L0.585173 17.5053L0.623124 17.3011L0.663193 17.0971L0.70537 16.8934L0.749655 16.6901L0.796027 16.4871L0.844517 16.2845L0.895085 16.0823L0.94776 15.8805L1.00251 15.6791L1.05936 15.4782L1.11829 15.2778L1.17929 15.0779L1.24236 14.8786L1.30751 14.6797L1.37472 14.4814L1.44399 14.2836L1.51531 14.0865L1.58868 13.89L1.66409 13.6942L1.74155 13.499L1.82103 13.3045L1.90253 13.1108L1.98605 12.9177L2.07159 12.7253L2.15913 12.5337L2.24867 12.343L2.3402 12.153L2.43372 11.9638L2.5292 11.7755L2.62666 11.5881L2.72608 11.4015L2.82744 11.2159L2.93074 11.0311L3.03599 10.8473L3.14315 10.6644L3.25223 10.4826L3.36321 10.3017L3.4761 10.1219L3.59087 9.94305L3.70752 9.76538L3.82604 9.58863L3.94641 9.41312L4.06864 9.23863L4.19269 9.06527L4.31856 8.89315L4.44626 8.72206L4.57575 8.5523L4.70704 8.38367L4.8401 8.21622L4.97493 8.05006L5.11152 7.88516L5.24984 7.72153L5.3899 7.55919L5.53168 7.39816L5.67516 7.23847L5.82033 7.08011L5.96719 6.92313L6.11571 6.76752L6.26588 6.61331L6.41768 6.4605L6.57111 6.30913L6.72615 6.15921L6.88279 6.01075L7.04101 5.86377L7.20079 5.71828L7.36213 5.57431L7.52501 5.43186L7.68941 5.29095L7.85531 5.15161L8.0227 5.01384L8.19158 4.87765L8.36191 4.74307L8.53369 4.6101L8.70684 4.47878L8.88153 4.34909L9.05756 4.22108L9.23493 4.09474L9.41363 3.97009L9.59377 3.84715L9.77515 3.72591L9.95786 3.60643L10.1419 3.48868L10.3273 3.37269L10.5138 3.25848L10.7017 3.14605L10.8907 3.03542L11.0809 2.92661L11.2723 2.81961L11.4649 2.71446L11.6586 2.61114L11.8535 2.5097L12.0494 2.41012L12.2465 2.31243L12.4447 2.21663L12.644 2.12273L12.8441 2.03076L13.0455 1.94072L13.2477 1.85261L13.451 1.76646L13.6552 1.68227L13.8603 1.60004L14.0664 1.51979L14.2734 1.44154L14.4812 1.36528L14.6899 1.29105L14.8994 1.21881L15.1098 1.14861L15.3209 1.08045L15.5328 1.01432L15.7455 0.950256L15.959 0.888256L16.1731 0.828321L16.388 0.770454L16.6035 0.714674L16.8196 0.660991L17.0364 0.609416L17.2538 0.559928L17.4718 0.512569L17.6903 0.467318L17.9094 0.424195L18.129 0.38321L18.3492 0.344354L18.5698 0.307647L18.7909 0.273089L19.0124 0.24068L19.2342 0.21044L19.4565 0.18236L19.6793 0.156449L19.9023 0.132697L20.1256 0.111146L20.3492 0.0917646L20.5732 0.0745628L20.7973 0.0595613L22.0028 -0.00927734L22.0716 5.79873L22.111 5.79828L22.2774 5.79804L22.4439 5.79944L22.6104 5.80247L22.777 5.80715L22.9436 5.81346L23.1103 5.8214L23.277 5.83099L23.4436 5.84223L23.6102 5.8551L23.7769 5.86961L23.9433 5.88578L24.1098 5.90359L24.2761 5.92303L24.4423 5.94412L24.6084 5.96685L24.7743 5.99122L24.9401 6.01724L25.1057 6.0449L25.2711 6.0742L25.4363 6.10513L25.6012 6.13771L25.7658 6.17193L25.9303 6.20777L26.0944 6.24525L26.2582 6.28435L26.4218 6.32509L26.585 6.36746L26.7478 6.41145L26.9102 6.45706L27.0724 6.50429L27.234 6.55312L27.3952 6.60358L27.556 6.65565L27.7164 6.70932L27.8763 6.76459L28.0357 6.82146L28.1947 6.87991L28.353 6.93997L28.5108 7.0016L28.6682 7.06482L28.8249 7.12962L28.9809 7.19598L29.1365 7.26391L29.2915 7.33341L29.4457 7.40446L29.5993 7.47705L29.7523 7.5512L29.9046 7.62688L30.0561 7.7041L30.207 7.78284L30.3571 7.8631L30.5065 7.94489L30.6551 8.02817L30.8029 8.11296L30.95 8.19923L31.0962 8.28702L31.2416 8.37627L31.3861 8.46696L31.5298 8.55919L31.6726 8.65276L31.8145 8.74787L31.9555 8.84441L32.0956 8.9423L32.2348 9.04173L32.373 9.14249L32.5102 9.2447L32.6465 9.34834L32.7817 9.45332L32.916 9.55974L33.0491 9.66739L33.1814 9.77648L33.3125 9.88702L33.4425 9.99878L33.5716 10.1119L33.6995 10.2263L33.8262 10.3421L33.9518 10.4592L34.0763 10.5776L34.1997 10.6971L34.3219 10.8181L34.4429 10.9402L34.5627 11.0637L34.6813 11.1883L34.7986 11.3142L34.9148 11.4413L35.0297 11.5696L35.1433 11.699L35.2557 11.8297L35.3667 11.9615L35.4765 12.0945L35.585 12.2287L35.6922 12.3639L35.798 12.5002L35.9024 12.6377L36.0055 12.7763L36.1072 12.9159L36.2076 13.0567L36.3065 13.1985L36.4041 13.3412L36.5002 13.485L36.5949 13.6299L36.6882 13.7758L36.7799 13.9226L36.8703 14.0704L36.9591 14.2192L37.0465 14.3689L37.1324 14.5195L37.2168 14.6711L37.2997 14.8235L37.381 14.9769L37.4608 15.1311L37.539 15.2861L37.6157 15.442L37.6909 15.5988L37.7645 15.7563L37.8365 15.9147L37.9069 16.0738L37.9757 16.2337L38.0428 16.3944L38.1084 16.5558L38.1724 16.7179L38.2347 16.8807L38.2954 17.0443L38.3544 17.2084L38.4118 17.3733L38.4675 17.5387L38.5216 17.7049L38.5739 17.8716L38.6246 18.0389L38.6735 18.2068L38.7208 18.3752L38.7664 18.5442L38.8103 18.7138L38.8523 18.8837L38.8929 19.0543L38.9315 19.2253L38.9684 19.3968L39.0037 19.5686L39.0371 19.7411L39.0688 19.9138L39.0988 20.0869L39.127 20.2604L39.1534 20.4343L39.1781 20.6086L39.2009 20.783L39.222 20.9579L39.2413 21.133L39.2588 21.3085L39.2745 21.4841L39.2885 21.66L39.3006 21.8361L39.3109 22.0125L39.3195 22.1889L39.3262 22.3657L39.3311 22.5424L39.3343 22.7194L39.3355 22.8964L39.335 23.0736L39.3326 23.2508L39.3284 23.4282L39.3224 23.6055L39.3146 23.7828L39.3051 23.9602L39.2936 24.1376L39.2803 24.3149L39.2652 24.4922L39.2482 24.6695L39.2295 24.8466L39.2088 25.0236L39.1864 25.2005L39.1623 25.3773L39.1361 25.5539L39.1083 25.7304L39.0786 25.9066L39.047 26.0826L39.0137 26.2584L38.9785 26.4341L38.9415 26.6094L38.9026 26.7844L38.862 26.9592L38.8196 27.1336L38.7753 27.3076L38.7293 27.4813L38.6815 27.6547L38.6318 27.8276L38.5804 28.0001L38.5271 28.1724L38.472 28.344L38.4153 28.5153L38.3566 28.6859L38.2962 28.8562L38.2341 29.026L38.1701 29.1951L38.1044 29.3637L38.037 29.5319L37.9678 29.6993L37.8968 29.8662L37.8241 30.0326L37.7497 30.1981L37.6735 30.3632L37.5956 30.5275L37.516 30.6911L37.4346 30.854L37.3516 31.0162L37.2667 31.1777L37.1804 31.3383L37.0922 31.4983L37.0024 31.6574L36.9109 31.8157L36.8177 31.9732L36.7229 32.1298L36.6265 32.2857L36.5283 32.4405L36.4286 32.5946L36.3273 32.7477L36.2242 32.8999L36.1197 33.0511L36.0135 33.2014L35.9057 33.3507L35.7963 33.4991L35.6854 33.6464L35.5729 33.7927L35.4588 33.9379L35.3433 34.0822L35.2262 34.2253L35.1075 34.3673L34.9873 34.5083L34.8657 34.6481L34.7425 34.7868L34.6179 34.9244L34.4918 35.0608L34.3643 35.196L34.2353 35.3301L34.1049 35.4629L33.973 35.5945L33.8397 35.7248L33.7051 35.854L33.5691 35.9819L33.4317 36.1085L33.2929 36.2338L33.1528 36.3577L33.0114 36.4804L32.8686 36.6018L32.7245 36.7218L32.5792 36.8404L32.4325 36.9577L32.2846 37.0735L32.1354 37.188L31.9849 37.301L31.8333 37.4127L31.6805 37.5229L31.5264 37.6316L31.3711 37.7389L31.2147 37.8447L31.0572 37.949L30.8984 38.0518L30.7387 38.1532L30.5777 38.2529L30.4157 38.3512L30.2525 38.4479L30.0883 38.5431L29.9232 38.6366L29.7568 38.7286L29.5896 38.819L29.4213 38.9078L29.2521 38.995L29.0818 39.0806L28.9106 39.1645L28.7385 39.2468L28.5654 39.3275L28.3915 39.4065L28.2167 39.4838L28.041 39.5593L27.8644 39.6333L27.687 39.7056L27.5089 39.7761L27.3298 39.8449L27.15 39.912L26.9695 39.9773L26.7881 40.041L26.6061 40.1028L26.4234 40.1629L26.2398 40.2212L26.0557 40.2778L25.8709 40.3326L25.6855 40.3855L25.4994 40.4367L25.3128 40.4862L25.1255 40.5337L24.9377 40.5794L24.7493 40.6234L24.5604 40.6655L24.371 40.7058L24.1811 40.7443L23.9906 40.7809L23.7998 40.8156L23.6086 40.8484L23.4168 40.8795L23.2247 40.9087L23.0321 40.9359L22.8393 40.9613L22.6461 40.9849L22.4525 41.0064L22.2587 41.0262L22.0646 41.0441L21.8703 41.06L21.6756 41.0741L21.4808 41.0862L21.2856 41.0965L21.0904 41.1048L20.895 41.1112L20.6993 41.1157L20.5037 41.1183L20.3078 41.119L20.1119 41.1178L19.9159 41.1146L19.7199 41.1096L19.5238 41.1025L19.3277 41.0935L19.1316 41.0827L18.9357 41.0699L18.7396 41.0552L18.5437 41.0385L18.3478 41.0199L18.1521 40.9995L17.9565 40.977L17.761 40.9527L17.5657 40.9263L17.3706 40.8981L17.1757 40.8679L16.981 40.8359L16.7866 40.8019L16.5924 40.7659L16.3986 40.7281L16.2049 40.6884L16.0117 40.6467L15.8187 40.6031L15.6263 40.5576L15.4341 40.5102L15.2423 40.4609L15.051 40.4097L14.8601 40.3566L14.6697 40.3016L14.4797 40.2447L14.2903 40.1859L14.1014 40.1253L13.9131 40.0628L13.7252 39.9983L13.538 39.932L13.3514 39.8639L13.1654 39.7939L12.98 39.722L12.7953 39.6483L12.6113 39.5727L12.4279 39.4953L12.2453 39.4161L12.0634 39.3351L11.8823 39.2522L11.7019 39.1675L11.5224 39.081L11.3437 38.9927L11.1657 38.9026L10.9886 38.8108L10.8125 38.7171L10.6371 38.6218L10.4627 38.5247L10.2893 38.4257L10.1167 38.3251L9.94511 38.2227L9.77453 38.1186L9.60488 38.0127L9.43625 37.9053L9.26876 37.796L9.10219 37.6851L8.93675 37.5724L8.77244 37.4582L8.60916 37.3423L8.44702 37.2247L8.28603 37.1055L8.12618 36.9846L7.96752 36.8622L7.81004 36.7381L7.65376 36.6124L7.49872 36.4852L7.34491 36.3564L7.19235 36.226L7.04107 36.0941L6.89109 35.9605L6.74241 35.8255L6.59506 35.6891L6.44903 35.551L6.30437 35.4116L6.16108 35.2705L6.01917 35.1281L5.87866 34.9842L5.73958 34.8388L5.60192 34.6921L5.46571 34.544L5.33098 34.3943L5.19771 34.2434L5.06594 34.0911L4.93567 33.9374L4.80693 33.7825L4.67973 33.6261L4.55407 33.4684L4.42999 33.3095L4.30748 33.1493L4.18656 32.9878L4.06725 32.825L3.94956 32.661L3.8335 32.4958L3.71909 32.3294L3.60633 32.1618L3.49526 31.993L3.38587 31.8231L3.27816 31.652L3.17217 31.4798L3.06791 31.3065L2.96538 31.132L2.86461 30.9566L2.76558 30.7801L2.66832 30.6025L2.57285 30.4238L2.47916 30.2442L2.38729 30.0636L2.29722 29.8821L2.20899 29.6996L2.12259 29.516L2.03803 29.3317L1.95533 29.1463L1.87449 28.9602L1.79554 28.773L1.71847 28.5852L1.64329 28.3964L1.57002 28.2068L1.49867 28.0165L1.42924 27.8253L1.36174 27.6335L1.29617 27.4409L1.23255 27.2475L1.1709 27.0535L1.1112 26.8587L1.05349 26.6634L0.997751 26.4673L0.943996 26.2706L0.892237 26.0734L0.842481 25.8755L0.794732 25.6771L0.749007 25.4781L0.705298 25.2786L0.663614 25.0786L0.623967 24.8781L0.586355 24.6772L0.550789 24.4757L0.51728 24.2739L0.485817 24.0717L0.45642 23.869L0.429091 23.6659L0.403838 23.4625L0.380652 23.2589L0.359543 23.0549L0.340521 22.8507L0.323586 22.646L0.308739 22.4412L0.295989 22.2362L0.285337 22.031L0.276782 21.8255L0.270325 21.62L0.265976 21.4143L0.263744 21.2084L0.263611 21.0025ZM20.1883 5.92039L20.1414 1.96158L20.0969 1.96588L19.8925 1.98764L19.6886 2.01137L19.4848 2.03711L19.2819 2.06477L19.0791 2.09445L18.8765 2.1261L18.6746 2.15971L18.4729 2.19531L18.2722 2.23277L18.0711 2.27233L17.8716 2.31366L17.6717 2.35708L17.4728 2.40234L17.2742 2.44962L17.0765 2.49871L16.8792 2.54977L16.6825 2.60273L16.4865 2.65761L16.2913 2.71432L16.0965 2.77299L15.9026 2.83348L15.7093 2.89589L15.5171 2.96003L15.3251 3.0262L15.1342 3.09413L14.9442 3.16386L14.7547 3.2355L14.5662 3.30888L14.3787 3.38403L14.1918 3.46112L14.0058 3.53995L13.8207 3.62058L13.6367 3.70291L13.4536 3.78703L13.2715 3.87284L13.09 3.96055L12.9098 4.04986L12.7306 4.14091L12.5524 4.23367L12.3753 4.32816L12.1994 4.42425L12.0241 4.52213L11.8501 4.6217L11.6775 4.72269L11.5055 4.82565L11.3351 4.92999L11.1659 5.03594L10.9975 5.14364L10.8304 5.2529L10.6645 5.36377L10.5002 5.47593L10.3366 5.59009L10.1745 5.70546L10.0137 5.82243L9.85401 5.941L9.69577 6.06098L9.53897 6.1824L9.38309 6.30553L9.22896 6.42983L9.07597 6.55577L8.92441 6.68307L8.77419 6.81185L8.62551 6.94187L8.47794 7.07353L8.33206 7.20637L8.18742 7.34073L8.04446 7.47623L7.9028 7.6132L7.76272 7.7514L7.62407 7.89097L7.48676 8.03198L7.35125 8.17395L7.21727 8.31715L7.08447 8.46202L6.95352 8.60782L6.82417 8.75465L6.69615 8.90302L6.56999 9.05232L6.44523 9.20295L6.32214 9.35461L6.20067 9.50751L6.08078 9.66143L5.96266 9.81638L5.84608 9.97246L5.73111 10.1298L5.61798 10.2878L5.50637 10.4472L5.39654 10.6074L5.2884 10.7686L5.18189 10.9309L5.07718 11.094L4.97418 11.258L4.87291 11.4231L4.77345 11.5889L4.67563 11.7558L4.57956 11.9236L4.48539 12.092L4.3929 12.2614L4.30218 12.4316L4.21331 12.6026L4.12618 12.7744L4.04092 12.9469L3.95744 13.1201L3.8758 13.2941L3.79594 13.4689L3.71797 13.6442L3.64177 13.8203L3.56743 13.9971L3.49499 14.1743L3.42436 14.3523L3.35559 14.5309L3.2887 14.71L3.22367 14.8898L3.16056 15.0699L3.09926 15.2508L3.03987 15.432L2.98239 15.6138L2.9268 15.7959L2.87307 15.9787L2.82128 16.1618L2.77138 16.3453L2.72337 16.5291L2.67728 16.7135L2.63311 16.8981L2.59085 17.083L2.5505 17.2683L2.51207 17.4539L2.47557 17.6397L2.44098 17.8258L2.40833 18.0121L2.3776 18.1987L2.3488 18.3855L2.32192 18.5724L2.29697 18.7595L2.27395 18.9468L2.25286 19.1341L2.23371 19.3216L2.21649 19.5092L2.20119 19.6967L2.18782 19.8845L2.17639 20.0722L2.16687 20.2599L2.1593 20.4476L2.15364 20.6353L2.14992 20.8229L2.14811 21.0105L2.14823 21.198L2.15027 21.3854L2.15423 21.5727L2.1601 21.7598L2.16788 21.9468L2.17759 22.1336L2.18919 22.3201L2.2027 22.5065L2.21811 22.6926L2.23543 22.8785L2.25462 23.0642L2.27572 23.2495L2.2987 23.4346L2.32356 23.6192L2.35031 23.8036L2.37893 23.9877L2.40941 24.1712L2.44177 24.3544L2.47597 24.5372L2.51203 24.7195L2.54994 24.9015L2.58969 25.0829L2.63129 25.2639L2.67471 25.4443L2.71995 25.6243L2.76702 25.8037L2.81588 25.9824L2.86657 26.1607L2.91905 26.3383L2.97332 26.5154L3.02938 26.6918L3.08719 26.8676L3.14679 27.0427L3.20815 27.217L3.27126 27.3908L3.3361 27.5638L3.40272 27.7361L3.47102 27.9076L3.54105 28.0784L3.61281 28.2483L3.68626 28.4175L3.76141 28.5859L3.83824 28.7535L3.91674 28.9202L3.9969 29.086L4.07872 29.2509L4.16218 29.415L4.24729 29.5782L4.33401 29.7405L4.42235 29.9018L4.51229 30.0621L4.60382 30.2215L4.69693 30.3799L4.79163 30.5372L4.88784 30.6936L4.98566 30.849L5.08498 31.0032L5.18585 31.1565L5.28823 31.3087L5.39208 31.4597L5.49743 31.6098L5.6043 31.7586L5.71259 31.9064L5.82237 32.053L5.93354 32.1984L6.0462 32.3427L6.16021 32.4857L6.27565 32.6276L6.39252 32.7683L6.51069 32.9078L6.63027 33.046L6.75118 33.1829L6.87346 33.3186L6.99703 33.453L7.12189 33.5862L7.24807 33.718L7.37552 33.8486L7.50427 33.9778L7.63423 34.1056L7.76548 34.2322L7.89789 34.3573L8.03152 34.4812L8.16639 34.6037L8.30242 34.7247L8.43953 34.8443L8.5779 34.9625L8.71743 35.0793L8.85788 35.1947L8.99967 35.3087L9.14239 35.4211L9.28624 35.5322L9.43111 35.6418L9.57712 35.7498L9.72405 35.8564L9.87201 35.9614L10.0209 36.065L10.1709 36.1671L10.3217 36.2675L10.4737 36.3666L10.6264 36.464L10.7801 36.5599L10.9348 36.6542L11.0901 36.747L11.2465 36.8382L11.4036 36.9277L11.5617 37.0158L11.7204 37.1021L11.8801 37.187L12.0404 37.2701L12.2015 37.3518L12.3635 37.4317L12.5261 37.51L12.6894 37.5867L12.8534 37.6618L13.018 37.7351L13.1835 37.8069L13.3494 37.8769L13.5161 37.9454L13.6833 38.0121L13.8511 38.0771L14.0195 38.1405L14.1883 38.2022L14.3578 38.2622L14.5278 38.3205L14.6983 38.3771L14.8693 38.432L15.0406 38.4852L15.2126 38.5367L15.3848 38.5865L15.5576 38.6345L15.7307 38.6808L15.9042 38.7255L16.0781 38.7683L16.2521 38.8095L16.4267 38.849L16.6015 38.8866L16.7765 38.9226L16.9519 38.9568L17.1276 38.9893L17.3034 39.0201L17.4794 39.049L17.6556 39.0763L17.8321 39.1018L18.0087 39.1255L18.1854 39.1477L18.3622 39.1679L18.5392 39.1864L18.7162 39.2033L18.8934 39.2183L19.0706 39.2317L19.2477 39.2432L19.425 39.253L19.6021 39.2611L19.7793 39.2674L19.9565 39.2721L20.1336 39.2748L20.3106 39.276L20.4875 39.2754L20.6644 39.273L20.841 39.269L21.0176 39.2631L21.194 39.2556L21.3702 39.2464L21.5462 39.2354L21.722 39.2227L21.8976 39.2083L22.0729 39.1922L22.2479 39.1743L22.4227 39.1547L22.5971 39.1336L22.7713 39.1106L22.945 39.086L23.1185 39.0596L23.2916 39.0317L23.4643 39.002L23.6366 38.9706L23.8084 38.9376L23.9798 38.9029L24.1508 38.8665L24.3213 38.8286L24.4913 38.7889L24.6608 38.7476L24.8298 38.7047L24.9982 38.6601L25.166 38.6139L25.3334 38.5661L25.5 38.5166L25.6662 38.4656L25.8316 38.4131L25.9966 38.3588L26.1608 38.3031L26.3242 38.2457L26.4871 38.1867L26.6493 38.1262L26.8107 38.0641L26.9714 38.0006L27.1313 37.9355L27.2905 37.8688L27.4489 37.8006L27.6065 37.7309L27.7632 37.6597L27.9193 37.587L28.0745 37.5128L28.2287 37.4372L28.3822 37.36L28.5347 37.2815L28.6864 37.2015L28.8372 37.1199L28.9869 37.037L29.1358 36.9527L29.2836 36.8671L29.4308 36.7799L29.5766 36.6915L29.7218 36.6015L29.8656 36.5103L30.0085 36.4177L30.1505 36.3237L30.2915 36.2283L30.4311 36.1318L30.5698 36.0338L30.7075 35.9346L30.844 35.8341L30.9796 35.7323L31.1137 35.6293L31.2471 35.5249L31.379 35.4194L31.5098 35.3126L31.6397 35.2046L31.7682 35.0953L31.8954 34.985L32.0216 34.8733L32.1464 34.7606L32.2701 34.6467L32.3925 34.5316L32.5135 34.4155L32.6335 34.2981L32.7522 34.1797L32.8695 34.0602L32.9856 33.9396L33.1002 33.818L33.2136 33.6955L33.3258 33.5715L33.4365 33.4469L33.546 33.321L33.6539 33.1943L33.7607 33.0665L33.866 32.9379L33.9698 32.8082L34.0724 32.6776L34.1735 32.5461L34.2733 32.4136L34.3715 32.2804L34.4685 32.1461L34.5641 32.0109L34.6579 31.8751L34.7505 31.7383L34.8415 31.6008L34.9312 31.4623L35.0195 31.323L35.1061 31.1832L35.1912 31.0425L35.275 30.9007L35.3571 30.7587L35.4378 30.6157L35.517 30.4719L35.5946 30.3278L35.6708 30.1826L35.7454 30.0368L35.8183 29.8909L35.8899 29.7438L35.9599 29.5961L36.0283 29.4481L36.0951 29.2994L36.1604 29.1501L36.224 29.0004L36.2863 28.8498L36.3468 28.6989L36.4057 28.5479L36.4631 28.3957L36.5188 28.2435L36.5731 28.0906L36.6258 27.9374L36.6768 27.7837L36.726 27.63L36.7739 27.4751L36.82 27.3205L36.8645 27.1653L36.9075 27.01L36.9488 26.854L36.9884 26.698L37.0266 26.5415L37.063 26.3847L37.0978 26.2278L37.131 26.0705L37.1625 25.9133L37.1924 25.7553L37.2207 25.5978L37.2473 25.4397L37.2723 25.2814L37.2956 25.1232L37.3174 24.9647L37.3375 24.8063L37.356 24.6472L37.3728 24.4888L37.388 24.3298L37.4014 24.1712L37.4134 24.012L37.4237 23.8535L37.4323 23.6944L37.4393 23.5352L37.4446 23.3765L37.4484 23.218L37.4505 23.059L37.451 22.9002L37.4499 22.7417L37.4471 22.5832L37.4427 22.4248L37.4366 22.2669L37.429 22.1085L37.4197 21.9508L37.4088 21.793L37.3964 21.6358L37.3823 21.4783L37.3667 21.3215L37.3494 21.1646L37.3305 21.0082L37.31 20.8519L37.288 20.6962L37.2643 20.5403L37.2391 20.3851L37.2124 20.2305L37.184 20.0757L37.154 19.9215L37.1225 19.7679L37.0894 19.6142L37.0549 19.4616L37.0186 19.3088L36.9811 19.157L36.9417 19.0051L36.901 18.8542L36.8588 18.7036L36.815 18.5533L36.7697 18.4039L36.7229 18.255L36.6745 18.1062L36.6248 17.9585L36.5734 17.811L36.5208 17.6644L36.4665 17.5181L36.4109 17.3728L36.3536 17.2277L36.295 17.0834L36.235 16.9401L36.1737 16.7974L36.1105 16.6549L36.0465 16.5137L35.9806 16.3726L35.9135 16.2329L35.845 16.0937L35.775 15.955L35.7039 15.8174L35.6312 15.6805L35.557 15.5441L35.482 15.4091L35.4052 15.2744L35.3272 15.1409L35.2478 15.0079L35.1674 14.8763L35.0852 14.745L35.0021 14.6149L34.9175 14.4855L34.8317 14.3572L34.7449 14.23L34.6564 14.1033L34.5669 13.9777L34.4762 13.8531L34.3842 13.7296L34.291 13.6069L34.1966 13.4853L34.1011 13.3646L34.0043 13.245L33.9065 13.1265L33.8073 13.0089L33.7071 12.8924L33.6058 12.7769L33.5035 12.6626L33.4 12.5493L33.2951 12.4369L33.1897 12.326L33.0826 12.2158L32.9749 12.1071L32.866 11.9993L32.7562 11.8927L32.645 11.787L32.5333 11.683L32.4202 11.5798L32.3062 11.4778L32.1915 11.3771L32.0757 11.2776L31.9586 11.179L31.8409 11.0818L31.7223 10.9859L31.6028 10.8912L31.4823 10.7976L31.3611 10.7056L31.2387 10.6143L31.1158 10.5247L30.9919 10.4363L30.8671 10.349L30.7417 10.2631L30.6151 10.1783L30.4884 10.0952L30.3603 10.0131L30.2318 9.93236L30.1022 9.85288L29.9721 9.77474L29.8413 9.69803L29.71 9.62277L29.5775 9.54843L29.445 9.47584L29.3113 9.40438L29.1771 9.33436L29.0424 9.26577L28.9069 9.19843L28.7709 9.13241L28.6343 9.06795L28.4971 9.00471L28.3595 8.94302L28.2212 8.88256L28.078 8.82169L27.9433 8.76606L27.8031 8.70972L27.6632 8.65512L27.5221 8.60155L27.381 8.54973L27.2394 8.49914L27.0974 8.4501L26.9548 8.40229L26.812 8.35612L26.6687 8.31129L26.5251 8.2679L26.3813 8.22605L26.237 8.1855L26.0921 8.14634L25.9474 8.10878L25.8024 8.07265L25.6565 8.03785L25.5111 8.00465L25.365 7.97277L25.2189 7.94244L25.0723 7.91349L24.9259 7.88605L24.7791 7.86004L24.6323 7.83554L24.4849 7.8124L24.3379 7.7908L24.1905 7.77063L24.043 7.7519L23.8954 7.73465L23.7479 7.71888L23.6002 7.70454L23.4525 7.69167L23.3046 7.68025L23.1567 7.67027L23.0091 7.66178L22.8615 7.65474L22.7133 7.64913L22.5659 7.645L22.4183 7.64231L22.2708 7.64107L22.123 7.64128L22.0934 7.64162L22.14 11.5716L22.2238 11.5712L22.3316 11.5718L22.4395 11.5735L22.5474 11.5763L22.6555 11.5801L22.7636 11.585L22.8716 11.591L22.9798 11.598L23.088 11.6061L23.1961 11.6152L23.3043 11.6255L23.4124 11.6368L23.5205 11.6493L23.6286 11.6627L23.7366 11.6772L23.8445 11.693L23.9524 11.7096L24.0601 11.7274L24.1679 11.7463L24.2754 11.7663L24.3829 11.7873L24.4902 11.8095L24.5975 11.8326L24.7045 11.8569L24.8113 11.8823L24.9181 11.9087L25.0245 11.9361L25.1308 11.9647L25.2369 11.9943L25.3428 12.0251L25.4485 12.0568L25.5539 12.0896L25.659 12.1236L25.7639 12.1585L25.8686 12.1946L25.9728 12.2317L26.0769 12.2699L26.1805 12.3091L26.2839 12.3494L26.387 12.3907L26.4897 12.4331L26.592 12.4766L26.694 12.521L26.7956 12.5665L26.8968 12.613L26.9975 12.6606L27.098 12.7092L27.1979 12.7589L27.2975 12.8096L27.3966 12.8613L27.4952 12.914L27.5934 12.9677L27.691 13.0224L27.7882 13.0782L27.885 13.1349L27.9812 13.1927L28.0768 13.2514L28.1719 13.3112L28.2665 13.3719L28.3606 13.4336L28.4541 13.4962L28.547 13.5599L28.6394 13.6246L28.7311 13.69L28.8222 13.7566L28.9127 13.8241L29.0026 13.8925L29.0918 13.9619L29.1804 14.0322L29.2683 14.1034L29.3556 14.1756L29.4422 14.2487L29.5281 14.3226L29.6134 14.3975L29.6979 14.4732L29.7817 14.5499L29.8647 14.6275L29.947 14.7059L30.0286 14.7852L30.1094 14.8654L30.1895 14.9464L30.2688 15.0284L30.3473 15.111L30.425 15.1946L30.5019 15.279L30.5779 15.3643L30.6532 15.4502L30.7277 15.5371L30.8013 15.6247L30.8741 15.7132L30.9459 15.8024L31.017 15.8924L31.0871 15.9832L31.1564 16.0747L31.2248 16.167L31.2922 16.26L31.3589 16.3537L31.4245 16.4482L31.4892 16.5434L31.553 16.6394L31.6158 16.7359L31.6777 16.8333L31.7387 16.9313L31.7987 17.0299L31.8578 17.1292L31.9157 17.2292L31.9728 17.3298L32.0289 17.4311L32.0839 17.533L32.1379 17.6355L32.191 17.7386L32.2429 17.8424L32.2939 17.9467L32.3439 18.0516L32.3927 18.157L32.4405 18.2631L32.4873 18.3696L32.5331 18.4768L32.5777 18.5844L32.6213 18.6926L32.6638 18.8013L32.7051 18.9104L32.7454 19.0201L32.7846 19.1302L32.8227 19.2408L32.8597 19.3519L32.8955 19.4634L32.9303 19.5753L32.9639 19.6877L32.9964 19.8005L33.0278 19.9137L33.0579 20.0273L33.087 20.1412L33.1148 20.2556L33.1416 20.3702L33.1672 20.4853L33.1916 20.6006L33.2148 20.7163L33.2368 20.8323L33.2577 20.9487L33.2774 21.0653L33.2959 21.1821L33.3132 21.2993L33.3293 21.4166L33.3442 21.5342L33.358 21.6522L33.3705 21.7703L33.3818 21.8886L33.3919 22.0071L33.4008 22.1258L33.4085 22.2446L33.4149 22.3636L33.4201 22.4828L33.4241 22.6021L33.4269 22.7215L33.4285 22.8411L33.4288 22.9608L33.4278 23.0805L33.4257 23.2003L33.4223 23.3201L33.4177 23.4401L33.4118 23.56L33.4047 23.68L33.3964 23.8001L33.3868 23.9201L33.3759 24.0401L33.3639 24.1601L33.3505 24.28L33.336 24.4L33.3202 24.5198L33.3031 24.6395L33.2848 24.7592L33.2653 24.8788L33.2445 24.9983L33.2224 25.1177L33.1992 25.2369L33.1746 25.356L33.1488 25.475L33.1218 25.5937L33.0936 25.7123L33.0641 25.8306L33.0333 25.9489L33.0013 26.0668L32.9681 26.1845L32.9337 26.3019L32.898 26.4192L32.8611 26.5362L32.8228 26.6529L32.7835 26.7692L32.7428 26.8852L32.7011 27.001L32.658 27.1164L32.6137 27.2314L32.5682 27.3462L32.5216 27.4605L32.4737 27.5746L32.4245 27.6881L32.3742 27.8013L32.3227 27.9141L32.27 28.0264L32.2161 28.1382L32.161 28.2497L32.1046 28.3606L32.0472 28.4712L31.9885 28.5811L31.9287 28.6906L31.8677 28.7996L31.8056 28.908L31.7423 29.0159L31.6778 29.1233L31.6122 29.2301L31.5455 29.3364L31.4775 29.442L31.4085 29.5471L31.3383 29.6514L31.2671 29.7553L31.1947 29.8585L31.1212 29.961L31.0465 30.0629L30.9708 30.1642L30.894 30.2648L30.8161 30.3646L30.7371 30.4637L30.657 30.5622L30.5759 30.6599L30.4937 30.757L30.4105 30.8532L30.3261 30.9487L30.2408 31.0434L30.1544 31.1374L30.067 31.2306L29.9787 31.323L29.8893 31.4145L29.7989 31.5053L29.7074 31.5952L29.615 31.6843L29.5216 31.7725L29.4273 31.8598L29.332 31.9464L29.2356 32.0319L29.1385 32.1167L29.0403 32.2006L28.9412 32.2834L28.8412 32.3655L28.7403 32.4465L28.6384 32.5266L28.5357 32.6058L28.4322 32.684L28.3277 32.7612L28.2223 32.8375L28.1162 32.9129L28.0092 32.9871L27.9013 33.0605L27.7925 33.1327L27.683 33.204L27.5727 33.2742L27.4617 33.3434L27.3497 33.4115L27.2371 33.4786L27.1236 33.5446L27.0095 33.6095L26.8945 33.6734L26.7788 33.7362L26.6624 33.7979L26.5453 33.8584L26.4275 33.9179L26.309 33.9762L26.1899 34.0334L26.07 34.0895L25.9495 34.1444L25.8283 34.1982L25.7066 34.2508L25.5842 34.3022L25.4612 34.3525L25.3376 34.4016L25.2134 34.4496L25.0887 34.4963L24.9633 34.5419L24.8375 34.5862L24.711 34.6293L24.5841 34.6712L24.4566 34.7119L24.3287 34.7513L24.2003 34.7896L24.0713 34.8265L23.942 34.8623L23.8121 34.8967L23.6819 34.9299L23.5512 34.9619L23.4201 34.9927L23.2885 35.0221L23.1567 35.0502L23.0243 35.0771L22.8917 35.1027L22.7587 35.1271L22.6254 35.1501L22.4917 35.1718L22.3578 35.1921L22.2236 35.2113L22.089 35.229L21.9542 35.2456L21.8192 35.2607L21.6838 35.2746L21.5483 35.2871L21.4126 35.2984L21.2767 35.3082L21.1405 35.3168L21.0042 35.324L20.8678 35.3298L20.7311 35.3343L20.5944 35.3375L20.4575 35.3394L20.3204 35.3399L20.1834 35.3391L20.0463 35.3368L19.9091 35.3333L19.7718 35.3284L19.6345 35.3221L19.4972 35.3145L19.3599 35.3055L19.2225 35.2953L19.0853 35.2835L18.948 35.2705L18.8107 35.2561L18.6736 35.2404L18.5365 35.2233L18.3994 35.2048L18.2626 35.1849L18.1258 35.1638L17.9892 35.1412L17.8526 35.1173L17.7163 35.0921L17.5802 35.0655L17.4442 35.0374L17.3084 35.0081L17.1729 34.9774L17.0376 34.9454L16.9025 34.9119L16.7677 34.8772L16.6331 34.8411L16.4988 34.8037L16.3649 34.7649L16.2313 34.7248L16.0979 34.6834L15.965 34.6405L15.8324 34.5964L15.7001 34.5509L15.5683 34.5042L15.4369 34.456L15.3058 34.4066L15.1752 34.3558L15.045 34.3038L14.9153 34.2503L14.786 34.1956L14.6573 34.1397L14.5291 34.0823L14.4013 34.0237L14.2741 33.9638L14.1474 33.9027L14.0212 33.8401L13.8956 33.7764L13.7707 33.7114L13.6462 33.6451L13.5225 33.5775L13.3993 33.5088L13.2767 33.4386L13.1548 33.3674L13.0335 33.2948L12.9129 33.221L12.793 33.146L12.6739 33.0697L12.5554 32.9923L12.4377 32.9135L12.3207 32.8336L12.2044 32.7526L12.0889 32.6704L11.9742 32.5869L11.8603 32.5022L11.747 32.4164L11.6348 32.3294L11.5233 32.2413L11.4127 32.1519L11.3029 32.0616L11.1939 31.9699L11.0858 31.8773L10.9787 31.7834L10.8723 31.6885L10.767 31.5925L10.6626 31.4954L10.5591 31.3972L10.4564 31.2979L10.3549 31.1975L10.2543 31.0962L10.1547 30.9937L10.056 30.8902L9.95827 30.7856L9.86172 30.6802L9.7661 30.5735L9.67151 30.466L9.57804 30.3574L9.4855 30.2479L9.3942 30.1374L9.30382 30.0258L9.21467 29.9134L9.12655 29.8L9.03957 29.6857L8.95371 29.5704L8.86889 29.4543L8.78529 29.3372L8.70293 29.2193L8.6216 29.1004L8.54151 28.9807L8.4626 28.8602L8.38488 28.7388L8.30835 28.6165L8.23304 28.4935L8.15895 28.3696L8.08609 28.2449L8.01447 28.1194L7.94409 27.9932L7.87497 27.8662L7.80712 27.7385L7.74053 27.6099L7.67523 27.4807L7.61122 27.3507L7.54851 27.22L7.48711 27.0887L7.42702 26.9566L7.36825 26.824L7.31081 26.6906L7.25471 26.5565L7.19995 26.4219L7.14656 26.2867L7.09451 26.1508L7.04383 26.0144L6.99452 25.8774L6.94659 25.7397L6.90005 25.6016L6.85491 25.4629L6.81115 25.3237L6.76881 25.1841L6.72788 25.0438L6.68837 24.9032L6.65027 24.762L6.61362 24.6203L6.57839 24.4783L6.54459 24.3358L6.51226 24.1929L6.48136 24.0496L6.45192 23.9059L6.42394 23.7619L6.39742 23.6174L6.37238 23.4726L6.34881 23.3275L6.32671 23.1822L6.3061 23.0365L6.28697 22.8905L6.26934 22.7441L6.2532 22.5976L6.23855 22.4509L6.2254 22.3039L6.21376 22.1566L6.20362 22.0093L6.19498 21.8616L6.18787 21.7139L6.18226 21.566L6.17818 21.418L6.17561 21.2698L6.17456 21.1214L6.17504 20.9731L6.17704 20.8246L6.18058 20.6761L6.18562 20.5275L6.19222 20.3788L6.20034 20.2303L6.20998 20.0816L6.22117 19.933L6.23388 19.7843L6.24813 19.6359L6.26392 19.4873L6.28124 19.3389L6.30009 19.1905L6.32048 19.0423L6.34241 18.8941L6.36587 18.7462L6.39085 18.5983L6.41738 18.4507L6.44544 18.3031L6.47503 18.1558L6.50615 18.0087L6.5388 17.8618L6.57298 17.7152L6.60868 17.5688L6.6459 17.4226L6.68465 17.2768L6.72492 17.1313L6.76671 16.9861L6.81001 16.8412L6.85482 16.6966L6.90115 16.5524L6.94899 16.4086L6.99832 16.2652L7.04916 16.1222L7.1015 15.9796L7.15533 15.8374L7.21064 15.6957L7.26745 15.5544L7.32574 15.4136L7.38551 15.2734L7.44675 15.1335L7.50947 14.9943L7.57364 14.8556L7.63928 14.7174L7.70637 14.5799L7.77493 14.4429L7.84491 14.3065L7.91634 14.1707L7.9892 14.0355L8.0635 13.901L8.13922 13.7672L8.21634 13.6339L8.29489 13.5015L8.37484 13.3697L8.45618 13.2386L8.53893 13.1082L8.62304 12.9785L8.70859 12.8497L8.79537 12.7216L8.88369 12.5943L8.97325 12.4677L9.06414 12.342L9.15648 12.2171L9.25004 12.093L9.34505 11.9699L9.44129 11.8475L9.53887 11.7261L9.63768 11.6056L9.73782 11.4859L9.83931 11.3671L9.94203 11.2493L10.046 11.1325L10.1513 11.0166L10.2577 10.9017L10.3654 10.7877L10.4744 10.6747L10.5846 10.5629L10.6959 10.4519L10.8085 10.342L10.9223 10.2332L11.0373 10.1254L11.1534 10.0187L11.2707 9.91303L11.3891 9.80857L11.5086 9.70513L11.6293 9.60282L11.7512 9.50164L11.874 9.4016L11.998 9.30269L12.1232 9.20501L12.2493 9.10846L12.3765 9.01314L12.5048 8.91896L12.6341 8.82601L12.7644 8.73429L12.8958 8.64381L13.0281 8.55456L13.1613 8.46665L13.2957 8.37987L13.4309 8.29443L13.5672 8.21026L13.7043 8.12737L13.8424 8.0458L13.9813 7.96553L14.1213 7.88659L14.262 7.80897L14.4036 7.73271L14.5461 7.65779L14.6895 7.58423L14.8336 7.51204L14.9786 7.44123L15.1244 7.3718L15.271 7.30378L15.4184 7.23715L15.5665 7.17193L15.7154 7.10814L15.865 7.04578L16.0153 6.98485L16.1663 6.92537L16.318 6.86733L16.4704 6.81076L16.6235 6.75566L16.7772 6.70203L16.9316 6.64988L17.0865 6.59922L17.242 6.55006L17.3982 6.50239L17.5549 6.45624L17.7122 6.4116L17.8699 6.36848L18.0283 6.32689L18.1871 6.28683L18.3465 6.24831L18.5063 6.21135L18.6666 6.17592L18.8273 6.14205L18.9884 6.10974L19.15 6.07901L19.312 6.04984L19.4743 6.02224L19.6371 5.99623L19.8002 5.9718L19.9636 5.94896L20.1272 5.92771L20.1883 5.92039ZM20.2574 11.7494L20.2103 7.7762L20.0761 7.79495L19.9319 7.81658L19.7875 7.83964L19.6441 7.86402L19.5005 7.88989L19.3575 7.91708L19.2149 7.94568L19.0728 7.97561L18.931 8.00696L18.7895 8.0397L18.6485 8.07378L18.508 8.10921L18.3677 8.14607L18.2329 8.18287L18.0892 8.22369L17.9505 8.2645L17.8124 8.30666L17.6751 8.35005L17.538 8.39488L17.4015 8.44105L17.2655 8.48845L17.1303 8.53708L16.9956 8.58716L16.8616 8.63836L16.728 8.69101L16.5955 8.74478L16.4629 8.8L16.3314 8.85634L16.2005 8.91392L16.0706 8.97274L15.9409 9.03288L15.812 9.09427L15.6842 9.15668L15.5566 9.22053L15.4303 9.28541L15.3042 9.35173L15.1794 9.41887L15.0548 9.48766L14.9314 9.55717L14.8088 9.62801L14.6869 9.70009L14.5659 9.77319L14.4455 9.84764L14.3263 9.9229L14.2076 9.9995L14.0901 10.0771L13.9734 10.1558L13.8575 10.2357L13.7424 10.3167L13.6286 10.3984L13.5154 10.4816L13.4031 10.5657L13.2918 10.6509L13.1816 10.7369L13.0721 10.8242L12.9638 10.9123L12.8565 11.0015L12.75 11.0919L12.6448 11.1829L12.5403 11.2751L12.4369 11.3683L12.3346 11.4622L12.2334 11.5571L12.1329 11.6532L12.0339 11.7498L11.9358 11.8475L11.8387 11.9462L11.7427 12.0456L11.6478 12.1461L11.5541 12.2473L11.4614 12.3493L11.3698 12.4522L11.2792 12.556L11.1902 12.6604L11.1019 12.7658L11.0149 12.872L10.929 12.9788L10.8444 13.0864L10.7607 13.195L10.6783 13.3041L10.5971 13.414L10.5171 13.5246L10.4382 13.636L10.3607 13.7478L10.2843 13.8605L10.2091 13.9739L10.135 14.088L10.0623 14.2025L9.99087 14.3178L9.92054 14.4339L9.85144 14.5502L9.78368 14.6674L9.71706 14.7851L9.65187 14.9031L9.58781 15.022L9.52488 15.1415L9.4635 15.2612L9.40325 15.3817L9.34433 15.5026L9.28665 15.6238L9.2303 15.7457L9.17519 15.868L9.12141 15.9908L9.06887 16.1139L9.01777 16.2375L8.9679 16.3615L8.91927 16.4861L8.87197 16.6109L8.82611 16.736L8.78139 16.8617L8.7382 16.9874L8.69615 17.1137L8.65553 17.2402L8.61615 17.3671L8.57821 17.4942L8.54151 17.6216L8.50624 17.7492L8.47221 17.8772L8.43956 18.0053L8.40825 18.1338L8.37829 18.2624L8.34965 18.3911L8.32235 18.5202L8.29643 18.6493L8.27183 18.7785L8.24857 18.9081L8.22668 19.0377L8.2061 19.1674L8.18691 19.2971L8.16903 19.427L8.15251 19.557L8.13734 19.6871L8.12351 19.8171L8.11102 19.9473L8.09989 20.0775L8.0901 20.2076L8.08165 20.3378L8.07453 20.468L8.06877 20.5981L8.06434 20.7281L8.06125 20.8581L8.0595 20.9881L8.05908 21.118L8.06 21.2478L8.06225 21.3774L8.06583 21.507L8.07072 21.6363L8.07695 21.7657L8.0845 21.8948L8.09336 22.0237L8.10355 22.1525L8.11505 22.281L8.12786 22.4094L8.14197 22.5375L8.15739 22.6654L8.17412 22.7931L8.19213 22.9204L8.21145 23.0476L8.23205 23.1742L8.25394 23.3008L8.27711 23.4271L8.30155 23.5528L8.32728 23.6785L8.35426 23.8036L8.38252 23.9285L8.41201 24.0528L8.4428 24.1769L8.47482 24.3006L8.50809 24.4239L8.54253 24.5467L8.57831 24.6691L8.61523 24.7911L8.65348 24.9126L8.69286 25.0338L8.73347 25.1543L8.77532 25.2742L8.8183 25.3938L8.86251 25.5129L8.90796 25.6314L8.95454 25.7494L9.00224 25.8668L9.05119 25.9837L9.10126 26.1L9.15257 26.2157L9.2049 26.3308L9.25847 26.4453L9.31318 26.5592L9.3689 26.6725L9.42587 26.7851L9.48386 26.8972L9.54298 27.0085L9.60323 27.1192L9.66451 27.2292L9.72693 27.3385L9.79037 27.4471L9.85494 27.5549L9.92054 27.6622L9.98717 27.7686L10.0548 27.8743L10.1236 27.9794L10.1932 28.0834L10.2641 28.187L10.3357 28.2896L10.4085 28.3915L10.4822 28.4925L10.557 28.5928L10.6327 28.6922L10.7094 28.7909L10.7869 28.8887L10.8655 28.9857L10.9449 29.0818L11.0253 29.1771L11.1067 29.2714L11.1889 29.3651L11.272 29.4576L11.356 29.5494L11.4408 29.6402L11.5266 29.7302L11.6132 29.8192L11.7007 29.9074L11.7889 29.9945L11.878 30.0808L11.968 30.1662L12.0586 30.2505L12.1502 30.334L12.2424 30.4163L12.3355 30.4977L12.4294 30.5783L12.524 30.6577L12.6193 30.7363L12.7153 30.8137L12.8121 30.8902L12.9095 30.9657L13.0077 31.0402L13.1066 31.1136L13.2061 31.186L13.3062 31.2574L13.4071 31.3277L13.5086 31.397L13.6108 31.4653L13.7135 31.5324L13.8168 31.5985L13.9208 31.6636L14.0252 31.7276L14.1303 31.7905L14.236 31.8523L14.3421 31.913L14.449 31.9726L14.5561 32.0311L14.664 32.0886L14.7722 32.1449L14.8809 32.2001L14.9902 32.2542L15.1 32.3072L15.2102 32.3591L15.3207 32.4098L15.4318 32.4595L15.5432 32.5079L15.6551 32.5552L15.7673 32.6015L15.88 32.6465L15.9929 32.6904L16.1063 32.7332L16.2201 32.7748L16.3341 32.8153L16.4484 32.8546L16.5632 32.8929L16.6781 32.9298L16.7934 32.9657L16.909 33.0003L17.0247 33.0338L17.1407 33.0662L17.257 33.0974L17.3735 33.1275L17.4902 33.1563L17.6071 33.1839L17.7242 33.2105L17.8415 33.2359L17.959 33.26L18.0765 33.283L18.1943 33.3048L18.312 33.3254L18.4301 33.345L18.5481 33.3632L18.6663 33.3803L18.7845 33.3963L18.9028 33.4111L19.0211 33.4246L19.1394 33.4371L19.2579 33.4483L19.3763 33.4584L19.4948 33.4672L19.6132 33.475L19.7316 33.4815L19.8499 33.487L19.9684 33.4912L20.0866 33.4943L20.2048 33.4961L20.3229 33.4968L20.441 33.4964L20.5589 33.4948L20.6767 33.4921L20.7943 33.4882L20.912 33.4832L21.0293 33.4769L21.1465 33.4696L21.2635 33.461L21.3804 33.4514L21.497 33.4406L21.6135 33.4287L21.7298 33.4156L21.8458 33.4014L21.9616 33.3861L22.077 33.3697L22.1923 33.3522L22.3073 33.3334L22.4218 33.3137L22.5362 33.2927L22.6503 33.2707L22.764 33.2477L22.8775 33.2234L22.9904 33.1981L23.1031 33.1718L23.2154 33.1443L23.3273 33.1158L23.4389 33.0862L23.55 33.0554L23.6608 33.0236L23.7711 32.9908L23.8809 32.957L23.9903 32.9221L24.0994 32.8861L24.2079 32.8491L24.316 32.811L24.4235 32.7719L24.5305 32.7318L24.6371 32.6907L24.7431 32.6486L24.8487 32.6054L24.9537 32.5613L25.058 32.5161L25.162 32.4701L25.2652 32.423L25.368 32.3748L25.4702 32.3258L25.5716 32.2759L25.6728 32.2248L25.773 32.173L25.8729 32.1201L25.9718 32.0664L26.0703 32.0117L26.1682 31.9561L26.2652 31.8995L26.3618 31.842L26.4576 31.7837L26.5526 31.7245L26.6472 31.6644L26.7408 31.6035L26.8338 31.5416L26.9263 31.4788L27.0178 31.4152L27.1085 31.351L27.1987 31.2856L27.288 31.2197L27.3766 31.1527L27.4645 31.085L27.5513 31.0166L27.6378 30.9472L27.7233 30.8771L27.8078 30.8063L27.8919 30.7344L27.9748 30.6622L28.057 30.5892L28.1386 30.515L28.219 30.4406L28.2988 30.3652L28.3778 30.2891L28.4557 30.2124L28.5329 30.1349L28.6093 30.0568L28.6848 29.9779L28.7593 29.8984L28.833 29.8182L28.9059 29.7374L28.9776 29.6561L29.0488 29.5738L29.1188 29.4911L29.1879 29.4079L29.2563 29.3237L29.3235 29.2394L29.39 29.1542L29.4555 29.0685L29.52 28.9822L29.5836 28.8954L29.6461 28.8082L29.7079 28.7201L29.7685 28.6318L29.8283 28.5428L29.8872 28.4533L29.9448 28.3635L30.0017 28.273L30.0576 28.182L30.1125 28.0907L30.1663 27.9989L30.2193 27.9065L30.271 27.814L30.322 27.7207L30.3719 27.6272L30.4206 27.5333L30.4687 27.4387L30.5153 27.3443L30.5613 27.2489L30.6059 27.1538L30.6499 27.0577L30.6925 26.9617L30.7343 26.865L30.7751 26.7683L30.8146 26.6713L30.8533 26.5738L30.8909 26.476L30.9273 26.3782L30.963 26.2798L30.9974 26.1813L31.0308 26.0826L31.0632 25.9836L31.0945 25.8843L31.1249 25.7849L31.1541 25.6853L31.1822 25.5854L31.2093 25.4854L31.2354 25.3852L31.2604 25.2848L31.2843 25.1845L31.3073 25.0836L31.3291 24.9829L31.3499 24.882L31.3696 24.7811L31.3883 24.68L31.4059 24.5786L31.4224 24.4775L31.4379 24.3761L31.4523 24.2746L31.4657 24.1733L31.478 24.0719L31.4894 23.9701L31.4995 23.869L31.5088 23.7671L31.5169 23.6656L31.5239 23.5643L31.53 23.4628L31.5349 23.3614L31.5388 23.2601L31.5417 23.1585L31.5434 23.0575L31.5443 22.9562L31.5439 22.8551L31.5427 22.754L31.5404 22.6533L31.537 22.5525L31.5325 22.4518L31.5271 22.3516L31.5206 22.251L31.5131 22.1508L31.5047 22.051L31.4951 21.951L31.4845 21.8516L31.4729 21.7519L31.4604 21.6528L31.4468 21.5538L31.4322 21.4549L31.4166 21.3564L31.4 21.2582L31.3824 21.1602L31.3638 21.0625L31.3442 20.9647L31.3236 20.8677L31.3021 20.7709L31.2796 20.6743L31.2561 20.5778L31.2317 20.4822L31.2062 20.3863L31.1799 20.2911L31.1525 20.1961L31.1242 20.1017L31.095 20.0075L31.0648 19.9136L31.0338 19.8203L31.0018 19.7274L30.9687 19.6345L30.9349 19.5425L30.9001 19.4507L30.8644 19.3595L30.8278 19.2685L30.7903 19.1779L30.7519 19.0881L30.7125 18.9985L30.6724 18.9095L30.6314 18.8211L30.5895 18.7329L30.5466 18.6452L30.5031 18.5583L30.4585 18.4716L30.4132 18.3858L30.3671 18.3004L30.32 18.2152L30.2723 18.131L30.2235 18.0471L30.1741 17.9639L30.1237 17.881L30.0728 17.7991L30.0208 17.7173L29.9682 17.6365L29.9148 17.5562L29.8606 17.4765L29.8055 17.3973L29.7497 17.3188L29.6934 17.2411L29.636 17.1636L29.5781 17.0871L29.5193 17.0112L29.4601 16.936L29.3998 16.8612L29.339 16.7873L29.2774 16.714L29.2152 16.6413L29.1523 16.5695L29.0886 16.4982L29.0244 16.4278L28.9594 16.3578L28.8941 16.2889L28.8276 16.2204L28.7609 16.1528L28.6932 16.0857L28.6252 16.0196L28.5566 15.9542L28.4873 15.8894L28.4173 15.8253L28.3467 15.7622L28.2757 15.6998L28.2038 15.6379L28.1319 15.5772L28.059 15.5169L27.9857 15.4575L27.9119 15.399L27.8375 15.341L27.7626 15.2841L27.6875 15.228L27.6114 15.1725L27.5348 15.1177L27.4582 15.0641L27.3805 15.011L27.303 14.9591L27.2248 14.9077L27.146 14.8571L27.0667 14.8073L26.9873 14.7586L26.9071 14.7104L26.8268 14.6634L26.7458 14.6169L26.6649 14.5715L26.5833 14.5269L26.5012 14.483L26.4188 14.44L26.3363 14.3981L26.2532 14.3567L26.1697 14.3163L26.0861 14.2768L26.0023 14.2383L25.9176 14.2003L25.8333 14.1635L25.7484 14.1276L25.663 14.0923L25.5776 14.058L25.492 14.0247L25.4061 13.9922L25.3196 13.9605L25.2333 13.9298L25.1465 13.8999L25.0596 13.8709L24.9727 13.8428L24.8854 13.8157L24.7981 13.7894L24.7101 13.7639L24.6224 13.7394L24.5345 13.7158L24.4463 13.693L24.3581 13.6711L24.2695 13.6502L24.1811 13.6301L24.0926 13.611L24.0038 13.5927L23.9148 13.5752L23.8262 13.5588L23.7371 13.5432L23.6481 13.5285L23.5588 13.5146L23.4699 13.5018L23.3804 13.4897L23.2915 13.4786L23.2022 13.4684L23.113 13.459L23.0238 13.4506L22.9345 13.443L22.8455 13.4363L22.7561 13.4305L22.667 13.4256L22.5782 13.4216L22.4887 13.4184L22.4 13.4161L22.3112 13.4148L22.2224 13.4143L22.1618 13.4145L22.2077 17.2964L22.2352 17.2965L22.2862 17.2972L22.3373 17.2984L22.3885 17.3001L22.4397 17.3025L22.491 17.3052L22.5423 17.3085L22.5937 17.3124L22.6451 17.3168L22.6966 17.3218L22.7481 17.3272L22.7997 17.3332L22.8513 17.3398L22.9028 17.3469L22.9544 17.3545L23.006 17.3627L23.0576 17.3714L23.1091 17.3807L23.1608 17.3906L23.2123 17.4009L23.2638 17.4119L23.3153 17.4233L23.3668 17.4353L23.4181 17.4478L23.4695 17.4609L23.5208 17.4746L23.5721 17.4888L23.6233 17.5035L23.6744 17.5188L23.7254 17.5346L23.7763 17.5511L23.8272 17.568L23.8778 17.5855L23.9285 17.6035L23.979 17.6221L24.0294 17.6412L24.0797 17.6609L24.1299 17.6811L24.1798 17.7019L24.2297 17.7232L24.2795 17.7451L24.329 17.7675L24.3785 17.7904L24.4277 17.814L24.4768 17.8379L24.5257 17.8625L24.5743 17.8877L24.6229 17.9133L24.6712 17.9395L24.7193 17.9663L24.7672 17.9935L24.8149 18.0213L24.8623 18.0495L24.9096 18.0784L24.9566 18.1078L25.0034 18.1378L25.0499 18.1681L25.0962 18.199L25.1422 18.2306L25.188 18.2626L25.2334 18.2951L25.2787 18.3281L25.3236 18.3616L25.3682 18.3956L25.4125 18.4302L25.4567 18.4653L25.5004 18.5008L25.5437 18.5368L25.5869 18.5734L25.6297 18.6104L25.6722 18.648L25.7143 18.686L25.7561 18.7246L25.7975 18.7635L25.8385 18.803L25.8793 18.843L25.9197 18.8834L25.9597 18.9243L25.9993 18.9657L26.0385 19.0075L26.0774 19.0499L26.1158 19.0927L26.154 19.1358L26.1916 19.1795L26.2288 19.2237L26.2657 19.2682L26.3021 19.3132L26.3381 19.3587L26.3737 19.4045L26.4089 19.4509L26.4436 19.4976L26.4779 19.5448L26.5116 19.5923L26.545 19.6403L26.5779 19.6887L26.6103 19.7376L26.6423 19.7867L26.6738 19.8364L26.7048 19.8863L26.7353 19.9367L26.7654 19.9875L26.7949 20.0386L26.824 20.0901L26.8524 20.1421L26.8805 20.1943L26.9081 20.2469L26.935 20.2999L26.9615 20.3531L26.9874 20.4068L27.0128 20.4609L27.0377 20.5152L27.0621 20.5699L27.086 20.6249L27.1092 20.6802L27.1319 20.7358L27.154 20.7918L27.1756 20.848L27.1967 20.9046L27.2171 20.9614L27.237 21.0186L27.2563 21.076L27.275 21.1337L27.2931 21.1916L27.3107 21.2498L27.3277 21.3083L27.344 21.3672L27.3599 21.4261L27.3751 21.4853L27.3896 21.5448L27.4036 21.6046L27.4169 21.6644L27.4297 21.7247L27.4418 21.785L27.4532 21.8455L27.4641 21.9064L27.4744 21.9673L27.4841 22.0284L27.493 22.0898L27.5013 22.1513L27.5091 22.213L27.5162 22.2749L27.5226 22.3369L27.5284 22.399L27.5335 22.4613L27.5381 22.5238L27.5419 22.5863L27.545 22.649L27.5475 22.7119L27.5495 22.7748L27.5506 22.8378L27.5512 22.9009L27.551 22.9641L27.5503 23.0274L27.5488 23.0909L27.5467 23.1543L27.5439 23.2178L27.5404 23.2814L27.5363 23.345L27.5315 23.4087L27.5259 23.4724L27.5198 23.5362L27.513 23.5999L27.5054 23.6637L27.4971 23.7275L27.4883 23.7914L27.4787 23.8551L27.4684 23.9189L27.4574 23.9826L27.4458 24.0464L27.4335 24.1101L27.4205 24.1738L27.4068 24.2374L27.3924 24.3009L27.3773 24.3645L27.3615 24.4279L27.3451 24.4914L27.328 24.5546L27.3101 24.6178L27.2916 24.6809L27.2724 24.7439L27.2525 24.8068L27.232 24.8695L27.2107 24.9323L27.1888 24.9948L27.166 25.0571L27.1427 25.1194L27.1187 25.1814L27.0941 25.2434L27.0687 25.3051L27.0427 25.3667L27.0159 25.4281L26.9885 25.4894L26.9604 25.5503L26.9316 25.6111L26.9021 25.6718L26.8721 25.7321L26.8412 25.7923L26.8098 25.8522L26.7776 25.9118L26.7448 25.9713L26.7114 26.0305L26.6772 26.0894L26.6424 26.1481L26.607 26.2064L26.5708 26.2646L26.5341 26.3224L26.4967 26.3799L26.4585 26.4372L26.4199 26.494L26.3805 26.5507L26.3405 26.6069L26.2998 26.6628L26.2586 26.7185L26.2166 26.7737L26.174 26.8286L26.1308 26.8832L26.087 26.9374L26.0426 26.9912L25.9976 27.0446L25.9519 27.0977L25.9056 27.1503L25.8587 27.2025L25.8112 27.2545L25.7631 27.3059L25.7144 27.3569L25.6651 27.4076L25.6152 27.4578L25.5647 27.5074L25.5137 27.5568L25.462 27.6056L25.4098 27.6539L25.357 27.7018L25.3037 27.7494L25.2498 27.7963L25.1953 27.8428L25.1403 27.8888L25.0846 27.9343L25.0285 27.9794L24.9719 28.0238L24.9147 28.0678L24.857 28.1113L24.7987 28.1543L24.74 28.1966L24.6807 28.2385L24.6209 28.2799L24.5606 28.3206L24.4998 28.3609L24.4385 28.4005L24.3767 28.4397L24.3144 28.4782L24.2517 28.5162L24.1885 28.5535L24.1248 28.5903L24.0607 28.6265L23.996 28.6621L23.931 28.6972L23.8655 28.7315L23.7996 28.7653L23.7332 28.7984L23.6664 28.831L23.5992 28.8629L23.5315 28.8942L23.4636 28.9248L23.3951 28.9547L23.3263 28.9841L23.2571 29.0128L23.1875 29.0408L23.1175 29.0681L23.0472 29.0949L22.9764 29.1209L22.9054 29.1463L22.834 29.1709L22.7622 29.1949L22.6902 29.2182L22.6178 29.2408L22.5451 29.2627L22.472 29.284L22.3987 29.3044L22.325 29.3243L22.2511 29.3433L22.1769 29.3617L22.1023 29.3793L22.0276 29.3962L21.9525 29.4124L21.8773 29.4279L21.8017 29.4426L21.7259 29.4566L21.6499 29.4699L21.5736 29.4824L21.4972 29.4941L21.4205 29.5051L21.3437 29.5154L21.2666 29.525L21.1894 29.5337L21.112 29.5416L21.0343 29.5489L20.9566 29.5553L20.8787 29.5611L20.8005 29.5659L20.7224 29.5701L20.644 29.5735L20.5656 29.5761L20.4869 29.5778L20.4083 29.5788L20.3295 29.5791L20.2506 29.5786L20.1717 29.5773L20.0926 29.5751L20.0135 29.5723L19.9344 29.5686L19.8551 29.564L19.7758 29.5588L19.6965 29.5527L19.6173 29.5458L19.5379 29.5381L19.4586 29.5297L19.3792 29.5203L19.2999 29.5103L19.2206 29.4994L19.1413 29.4877L19.062 29.4752L18.9829 29.4619L18.9037 29.4478L18.8246 29.4329L18.7455 29.4173L18.6666 29.4008L18.5877 29.3835L18.509 29.3653L18.4303 29.3464L18.3516 29.3267L18.2732 29.3062L18.1949 29.2848L18.1167 29.2627L18.0388 29.2397L17.9608 29.216L17.8831 29.1914L17.8056 29.1661L17.7281 29.14L17.651 29.1131L17.574 29.0853L17.4972 29.0567L17.4207 29.0274L17.3443 28.9973L17.2682 28.9663L17.1923 28.9347L17.1168 28.9022L17.0414 28.8689L16.9662 28.8348L16.8915 28.8L16.8168 28.7643L16.7426 28.7279L16.6687 28.6907L16.595 28.6527L16.5217 28.614L16.4487 28.5745L16.376 28.5342L16.3038 28.4932L16.2317 28.4513L16.1601 28.4087L16.0889 28.3655L16.018 28.3213L15.9475 28.2765L15.8774 28.231L15.8076 28.1846L15.7383 28.1375L15.6696 28.0897L15.6011 28.0412L15.533 27.9919L15.4655 27.9418L15.3983 27.8911L15.3317 27.8397L15.2655 27.7875L15.1998 27.7346L15.1345 27.6811L15.0697 27.6268L15.0054 27.5718L14.9417 27.5161L14.8785 27.4597L14.8157 27.4026L14.7535 27.3449L14.6918 27.2865L14.6308 27.2273L14.5701 27.1676L14.5101 27.1071L14.4507 27.0461L14.3918 26.9843L14.3335 26.922L14.2758 26.8588L14.2188 26.7952L14.1622 26.7309L14.1064 26.6659L14.0511 26.6004L13.9964 26.5342L13.9424 26.4674L13.889 26.4L13.8363 26.3321L13.7841 26.2635L13.7327 26.1943L13.682 26.1246L13.632 26.0542L13.5825 25.9833L13.5338 25.9118L13.4857 25.8399L13.4384 25.7673L13.3919 25.6942L13.3459 25.6206L13.3008 25.5464L13.2562 25.4717L13.2126 25.3965L13.1696 25.3207L13.1273 25.2445L13.0858 25.1678L13.0451 25.0906L13.0051 25.0129L12.9658 24.9347L12.9273 24.8562L12.8897 24.777L12.8528 24.6975L12.8167 24.6175L12.7814 24.5371L12.7469 24.4562L12.7131 24.375L12.6802 24.2932L12.6482 24.2112L12.6169 24.1286L12.5866 24.0457L12.557 23.9625L12.5282 23.8789L12.5002 23.7949L12.4732 23.7104L12.4469 23.6257L12.4215 23.5407L12.397 23.4552L12.3733 23.3695L12.3506 23.2834L12.3286 23.1971L12.3076 23.1104L12.2875 23.0235L12.2681 22.9362L12.2497 22.8487L12.2323 22.7609L12.2156 22.6729L12.1999 22.5846L12.1851 22.496L12.1712 22.4073L12.1581 22.3183L12.146 22.2291L12.1349 22.1397L12.1246 22.0501L12.1152 21.9602L12.1068 21.8703L12.0993 21.7801L12.0927 21.6898L12.0871 21.5993L12.0823 21.5087L12.0785 21.4181L12.0757 21.3272L12.0738 21.2362L12.0729 21.1452L12.0728 21.054L12.0737 20.9627L12.0757 20.8714L12.0784 20.78L12.0822 20.6884L12.087 20.5969L12.0926 20.5054L12.0992 20.4138L12.1068 20.3222L12.1153 20.2306L12.1248 20.139L12.1353 20.0474L12.1467 19.9557L12.159 19.8642L12.1724 19.7727L12.1867 19.6812L12.202 19.5898L12.2182 19.4984L12.2353 19.4071L12.2535 19.3159L12.2727 19.2248L12.2927 19.1338L12.3137 19.0429L12.3357 18.9522L12.3586 18.8615L12.3826 18.771L12.4075 18.6808L12.4333 18.5906L12.46 18.5005L12.4878 18.4108L12.5165 18.3211L12.5461 18.2316L12.5767 18.1425L12.6083 18.0535L12.6408 17.9647L12.6742 17.8762L12.7086 17.788L12.744 17.7L12.7803 17.6121L12.8175 17.5247L12.8557 17.4376L12.8948 17.3507L12.9348 17.2641L12.9759 17.1778L13.0177 17.092L13.0606 17.0063L13.1043 16.9211L13.149 16.8363L13.1946 16.7517L13.2411 16.6676L13.2885 16.5838L13.3369 16.5005L13.3861 16.4176L13.4363 16.335L13.4873 16.2529L13.5393 16.1712L13.5922 16.0899L13.6458 16.0091L13.7004 15.9288L13.756 15.8489L13.8123 15.7695L13.8696 15.6906L13.9277 15.6122L13.9866 15.5342L14.0464 15.4569L14.1071 15.38L14.1687 15.3037L14.2311 15.2278L14.2942 15.1527L14.3583 15.0779L14.4232 15.0038L14.4889 14.9303L14.5554 14.8573L14.6227 14.785L14.6909 14.7132L14.7599 14.6421L14.8296 14.5715L14.9001 14.5016L14.9715 14.4323L15.0436 14.3637L15.1165 14.2958L15.1901 14.2284L15.2644 14.1618L15.3396 14.0958L15.4156 14.0306L15.4922 13.9659L15.5696 13.9021L15.6477 13.8389L15.7265 13.7764L15.806 13.7147L15.8863 13.6538L15.9672 13.5935L16.0489 13.534L16.1312 13.4753L16.2142 13.4173L16.2979 13.36L16.3823 13.3035L16.4672 13.2479L16.5529 13.1931L16.6393 13.139L16.7261 13.0858L16.8137 13.0333L16.9019 12.9817L16.9907 12.9309L17.0801 12.881L17.17 12.8318L17.2606 12.7836L17.3517 12.7362L17.4434 12.6896L17.5357 12.644L17.6285 12.5991L17.7219 12.5552L17.8157 12.5121L17.9101 12.47L18.005 12.4287L18.1005 12.3883L18.1965 12.3489L18.2928 12.3104L18.3898 12.2728L18.4872 12.2361L18.5849 12.2003L18.6832 12.1655L18.782 12.1316L18.8812 12.0987L18.9808 12.0667L19.0807 12.0357L19.1812 12.0056L19.282 11.9765L19.3831 11.9485L19.4847 11.9213L19.5866 11.8951L19.6889 11.8699L19.7915 11.8458L19.8946 11.8226L19.9978 11.8004L20.1014 11.7792L20.2053 11.7591L20.2574 11.7494ZM21.5343 19.2145L20.3492 19.4977L20.2796 13.6271L20.2238 13.6397L20.1397 13.6595L20.0557 13.6802L19.9723 13.7016L19.889 13.7238L19.8062 13.7468L19.7235 13.7708L19.6415 13.7952L19.5594 13.8207L19.4782 13.8467L19.3969 13.8738L19.3161 13.9016L19.2357 13.93L19.1556 13.9592L19.0762 13.9892L18.9969 14.02L18.9181 14.0515L18.8397 14.0836L18.7615 14.1168L18.6843 14.1503L18.607 14.1848L18.5305 14.2199L18.4541 14.2559L18.3785 14.2924L18.303 14.3297L18.2284 14.3676L18.154 14.4063L18.0802 14.4457L18.0069 14.4857L17.934 14.5264L17.8616 14.5678L17.79 14.6098L17.7184 14.6527L17.6476 14.6959L17.5775 14.74L17.5078 14.7846L17.4385 14.8299L17.3699 14.8759L17.3018 14.9225L17.2343 14.9696L17.1674 15.0173L17.1009 15.0657L17.0351 15.1147L16.9699 15.1643L16.9053 15.2145L16.8413 15.2651L16.778 15.3164L16.715 15.3683L16.6527 15.4208L16.5912 15.4737L16.5303 15.5273L16.4699 15.5812L16.4102 15.6358L16.351 15.691L16.2926 15.7467L16.2349 15.8027L16.1776 15.8595L16.1211 15.9165L16.0653 15.9742L16.0102 16.0322L15.9555 16.091L15.9017 16.1499L15.8486 16.2095L15.796 16.2695L15.7443 16.3298L15.6931 16.3907L15.6428 16.4518L15.593 16.5137L15.544 16.5757L15.4956 16.6383L15.448 16.7014L15.4011 16.7646L15.3548 16.8282L15.3094 16.8923L15.2645 16.9569L15.2204 17.0216L15.1771 17.0869L15.1346 17.1523L15.0927 17.2181L15.0515 17.2845L15.0112 17.3509L14.9714 17.4179L14.9325 17.4849L14.8943 17.5524L14.8568 17.6202L14.8202 17.6881L14.7842 17.7564L14.749 17.825L14.7145 17.894L14.6808 17.9629L14.6478 18.0324L14.6156 18.1019L14.5843 18.1717L14.5535 18.2417L14.5236 18.312L14.4945 18.3824L14.4661 18.4531L14.4386 18.524L14.4116 18.595L14.3856 18.6661L14.3603 18.7375L14.3358 18.8091L14.312 18.8808L14.289 18.9525L14.2668 19.0246L14.2453 19.0967L14.2247 19.1688L14.2048 19.2411L14.1855 19.3136L14.1672 19.3861L14.1497 19.4587L14.1328 19.5314L14.1168 19.6042L14.1015 19.6771L14.087 19.7499L14.0733 19.8228L14.0603 19.8959L14.0482 19.9688L14.0368 20.0418L14.0261 20.115L14.0162 20.1879L14.0071 20.2611L13.9988 20.334L13.9912 20.4071L13.9844 20.4803L13.9784 20.5532L13.9731 20.6262L13.9686 20.6992L13.9648 20.772L13.9618 20.8448L13.9595 20.9175L13.9581 20.9903L13.9573 21.0629L13.9574 21.1354L13.9581 21.2078L13.9596 21.2802L13.9619 21.3524L13.9649 21.4244L13.9686 21.4964L13.9731 21.5682L13.9784 21.6398L13.9843 21.7114L13.991 21.7828L13.9984 21.8541L14.0065 21.925L14.0154 21.996L14.0249 22.0665L14.0353 22.1372L14.0463 22.2074L14.058 22.2775L14.0705 22.3476L14.0836 22.4172L14.0975 22.4867L14.112 22.5558L14.1273 22.6249L14.1433 22.6936L14.1599 22.7621L14.1772 22.8302L14.1953 22.8984L14.2139 22.9659L14.2333 23.0335L14.2533 23.1005L14.274 23.1674L14.2954 23.234L14.3174 23.3001L14.3401 23.3662L14.3634 23.4318L14.3874 23.497L14.412 23.5621L14.4372 23.6268L14.4632 23.691L14.4897 23.755L14.5167 23.8185L14.5446 23.8819L14.573 23.9448L14.602 24.0073L14.6316 24.0694L14.6617 24.1311L14.6927 24.1927L14.7239 24.2535L14.7559 24.3141L14.7885 24.3744L14.8217 24.4341L14.8554 24.4935L14.8897 24.5526L14.9245 24.611L14.96 24.6691L14.9959 24.7268L15.0324 24.784L15.0695 24.8409L15.107 24.8972L15.1452 24.9532L15.1837 25.0085L15.2229 25.0636L15.2626 25.1181L15.3027 25.172L15.3435 25.2257L15.3846 25.2788L15.4263 25.3313L15.4684 25.3834L15.5111 25.4352L15.5541 25.4862L15.5978 25.5369L15.6418 25.587L15.6862 25.6366L15.7313 25.6857L15.7766 25.7342L15.8224 25.7824L15.8687 25.8299L15.9153 25.8769L15.9625 25.9234L16.01 25.9693L16.0579 26.0148L16.1062 26.0596L16.155 26.1039L16.2041 26.1477L16.2536 26.1909L16.3034 26.2336L16.3536 26.2757L16.4042 26.3173L16.4552 26.3583L16.5066 26.3987L16.5581 26.4385L16.6102 26.4778L16.6625 26.5165L16.7151 26.5547L16.7681 26.5922L16.8214 26.6292L16.8749 26.6656L16.9288 26.7014L16.9829 26.7366L17.0373 26.7712L17.0922 26.8054L17.1471 26.8387L17.2023 26.8716L17.2579 26.9039L17.3136 26.9354L17.3695 26.9665L17.4259 26.997L17.4824 27.0268L17.539 27.056L17.5959 27.0846L17.6532 27.1127L17.7103 27.14L17.768 27.1669L17.8257 27.1931L17.8835 27.2186L17.9417 27.2436L18 27.2679L18.0583 27.2917L18.1169 27.3148L18.1756 27.3372L18.2346 27.3591L18.2934 27.3804L18.3528 27.4011L18.4119 27.421L18.4712 27.4405L18.5307 27.4593L18.5904 27.4775L18.65 27.495L18.7098 27.5119L18.7697 27.5282L18.8296 27.5439L18.8896 27.5589L18.9496 27.5734L19.0097 27.5872L19.0698 27.6004L19.1301 27.613L19.1903 27.6249L19.2506 27.6364L19.3109 27.647L19.3712 27.6572L19.4316 27.6667L19.4919 27.6756L19.5521 27.6839L19.6124 27.6915L19.6727 27.6986L19.733 27.705L19.7933 27.7108L19.8535 27.716L19.9137 27.7207L19.9737 27.7247L20.0339 27.7281L20.0938 27.7308L20.1537 27.7331L20.2137 27.7346L20.2734 27.7357L20.333 27.7361L20.3926 27.7359L20.4521 27.7352L20.5116 27.7337L20.5709 27.7318L20.6299 27.7293L20.689 27.7261L20.7481 27.7224L20.8067 27.7181L20.8654 27.7133L20.9238 27.7078L20.9822 27.7018L21.0404 27.6952L21.0983 27.6881L21.1563 27.6804L21.2139 27.672L21.2712 27.6632L21.3287 27.6538L21.3858 27.6439L21.4426 27.6334L21.4994 27.6223L21.5559 27.6106L21.6121 27.5985L21.668 27.5859L21.7239 27.5726L21.7796 27.5588L21.8349 27.5446L21.89 27.5298L21.9448 27.5145L21.9996 27.4986L22.0539 27.4822L22.1078 27.4654L22.1619 27.4479L22.2153 27.43L22.2686 27.4117L22.3215 27.3928L22.3742 27.3733L22.4267 27.3534L22.4789 27.333L22.5306 27.3122L22.5821 27.2909L22.6333 27.269L22.6843 27.2467L22.7347 27.2239L22.7851 27.2007L22.8349 27.1771L22.8844 27.1529L22.9337 27.1283L22.9825 27.1033L23.0311 27.0778L23.0793 27.0518L23.1271 27.0255L23.1745 26.9988L23.2217 26.9715L23.2685 26.9439L23.3148 26.9158L23.3608 26.8873L23.4064 26.8584L23.4516 26.8292L23.4966 26.7995L23.541 26.7695L23.5851 26.7389L23.6288 26.7081L23.672 26.6769L23.7149 26.6453L23.7573 26.6133L23.7994 26.5809L23.841 26.5482L23.8824 26.5151L23.9231 26.4818L23.9635 26.4481L24.0034 26.4139L24.0429 26.3795L24.082 26.3447L24.1207 26.3096L24.159 26.2742L24.1966 26.2385L24.234 26.2024L24.2709 26.166L24.3074 26.1294L24.3434 26.0925L24.3789 26.0552L24.4139 26.0177L24.4487 25.9798L24.4827 25.9419L24.5166 25.9034L24.5498 25.8647L24.5825 25.826L24.615 25.7867L24.6466 25.7474L24.6781 25.7077L24.709 25.6679L24.7394 25.6278L24.7694 25.5874L24.7988 25.547L24.8278 25.5061L24.8564 25.4651L24.8844 25.4241L24.9119 25.3825L24.9391 25.341L24.9655 25.2992L24.9916 25.2573L25.0172 25.2151L25.0423 25.1728L25.067 25.1303L25.091 25.0876L25.1147 25.0449L25.1378 25.0018L25.1604 24.9588L25.1825 24.9155L25.2042 24.8721L25.2254 24.8286L25.2461 24.7848L25.2662 24.7411L25.2859 24.6972L25.305 24.6533L25.3237 24.6091L25.3418 24.565L25.3596 24.5205L25.3767 24.4764L25.3934 24.4315L25.4095 24.3874L25.4252 24.3426L25.4404 24.2978L25.455 24.2531L25.4692 24.2083L25.4829 24.1636L25.4961 24.1183L25.5087 24.0737L25.521 24.0284L25.5326 23.9837L25.5438 23.9385L25.5545 23.8933L25.5647 23.8483L25.5744 23.8035L25.5836 23.7581L25.5924 23.7131L25.6006 23.6678L25.6083 23.6229L25.6156 23.5779L25.6224 23.5328L25.6287 23.4876L25.6344 23.4426L25.6398 23.3978L25.6446 23.353L25.6489 23.3079L25.6528 23.2632L25.6562 23.2183L25.6591 23.1736L25.6616 23.129L25.6635 23.0845L25.665 23.0402L25.666 22.9955L25.6666 22.951L25.6667 22.9069L25.6663 22.8628L25.6655 22.8188L25.6641 22.7749L25.6624 22.7308L25.6601 22.6875L25.6575 22.6433L25.6544 22.6002L25.6508 22.5569L25.6468 22.5133L25.6422 22.4702L25.6374 22.4276L25.632 22.3843L25.6262 22.3419L25.6199 22.2992L25.6134 22.2572L25.6062 22.2147L25.5986 22.1726L25.5907 22.1308L25.5824 22.0892L25.5736 22.0474L25.5643 22.0062L25.5547 21.965L25.5447 21.924L25.5343 21.8834L25.5233 21.8425L25.5122 21.8024L25.5005 21.7619L25.4884 21.7221L25.476 21.6823L25.4631 21.6428L25.4499 21.6034L25.4362 21.5642L25.4223 21.5255L25.4079 21.4869L25.3931 21.4483L25.378 21.4102L25.3625 21.372L25.3467 21.3347L25.3304 21.2969L25.3139 21.2598L25.297 21.223L25.2797 21.1862L25.2621 21.1498L25.2441 21.1136L25.2258 21.0776L25.2072 21.042L25.1882 21.0067L25.169 20.9716L25.1493 20.9368L25.1293 20.9022L25.1091 20.868L25.0886 20.834L25.0676 20.8002L25.0464 20.767L25.0249 20.7339L25.0031 20.7011L24.981 20.6685L24.9587 20.6364L24.936 20.6044L24.913 20.5729L24.8898 20.5416L24.8663 20.5107L24.8426 20.48L24.8184 20.4496L24.7942 20.4197L24.7696 20.39L24.7448 20.3605L24.7197 20.3314L24.6945 20.3028L24.6689 20.2744L24.6431 20.2463L24.6171 20.2184L24.5909 20.1911L24.5644 20.1641L24.5376 20.1372L24.5108 20.1109L24.4837 20.0849L24.4564 20.0592L24.4286 20.0337L24.4011 20.0087L24.3731 19.9839L24.3451 19.9597L24.3167 19.9356L24.2882 19.912L24.2595 19.8887L24.2307 19.8658L24.2017 19.8432L24.1725 19.8208L24.1432 19.799L24.1137 19.7775L24.084 19.7563L24.0543 19.7355L24.0244 19.7149L23.9943 19.6949L23.9641 19.6751L23.9337 19.6557L23.9033 19.6367L23.8726 19.618L23.842 19.5997L23.8112 19.5818L23.7803 19.5642L23.7491 19.5469L23.7181 19.5301L23.6869 19.5135L23.6555 19.4974L23.6243 19.4816L23.5926 19.4661L23.5612 19.4511L23.5295 19.4365L23.4978 19.4221L23.466 19.4081L23.4341 19.3944L23.4024 19.3813L23.3703 19.3684L23.3382 19.3559L23.3063 19.3438L23.2742 19.3319L23.2421 19.3205L23.2099 19.3094L23.1777 19.2986L23.1457 19.2883L23.1134 19.2783L23.0811 19.2686L23.049 19.2593L23.0165 19.2504L22.9844 19.2419L22.9521 19.2336L22.9199 19.2257L22.8876 19.2182L22.8554 19.211L22.8231 19.2042L22.7909 19.1977L22.7588 19.1916L22.7268 19.1858L22.6945 19.1804L22.6626 19.1753L22.6303 19.1706L22.5985 19.1662L22.5665 19.1621L22.5346 19.1584L22.5029 19.155L22.471 19.152L22.4394 19.1492L22.4077 19.1469L22.3761 19.1448L22.3446 19.143L22.3131 19.1417L22.282 19.1407L22.2506 19.1399L22.2194 19.1394L22.1883 19.1393L22.1573 19.1397L22.1264 19.1402L22.0956 19.141L22.0649 19.1422L22.0345 19.1437L22.0038 19.1455L21.9736 19.1476L21.9434 19.1499L21.9132 19.1527L21.8833 19.1557L21.8533 19.159L21.8237 19.1626L21.7941 19.1665L21.7647 19.1707L21.7353 19.1752L21.7062 19.18L21.6771 19.185L21.6484 19.1903L21.6195 19.196L21.591 19.2019L21.5625 19.208L21.5343 19.2145Z" fill="#FEEE00"/>
</svg>
